<?xml version="1.0" encoding="utf-8" standalone="no"?>
<!DOCTYPE svg PUBLIC "-//W3C//DTD SVG 1.1//EN"
  "http://www.w3.org/Graphics/SVG/1.1/DTD/svg11.dtd">
<!-- Created with matplotlib (https://matplotlib.org/) -->
<svg height="311.262pt" version="1.1" viewBox="0 0 424.145 311.262" width="424.145pt" xmlns="http://www.w3.org/2000/svg" xmlns:xlink="http://www.w3.org/1999/xlink">
 <defs>
  <style type="text/css">
*{stroke-linecap:butt;stroke-linejoin:round;}
  </style>
 </defs>
 <g id="figure_1">
  <g id="patch_1">
   <path d="M 0 311.262 
L 424.145 311.262 
L 424.145 0 
L 0 0 
z
" style="fill:#ffffff;"/>
  </g>
  <g id="axes_1">
   <g id="patch_2">
    <path d="M 56.325 276.812 
L 413.445 276.812 
L 413.445 10.7 
L 56.325 10.7 
z
" style="fill:#ffffff;"/>
   </g>
   <g id="matplotlib.axis_1">
    <g id="xtick_1">
     <g id="line2d_1">
      <defs>
       <path d="M 0 0 
L 0 3.5 
" id="m7f93af3669" style="stroke:#000000;stroke-width:0.8;"/>
      </defs>
      <g>
       <use style="stroke:#000000;stroke-width:0.8;" x="72.557727" xlink:href="#m7f93af3669" y="276.812"/>
      </g>
     </g>
     <g id="text_1">
      <!-- 0 -->
      <defs>
       <path d="M 3.125 29.296875 
Q 3.90625 50 6.4375 56.046875 
Q 8.984375 62.109375 13.671875 66.015625 
Q 18.359375 69.921875 25.1875 69.921875 
Q 32.03125 69.921875 37.109375 64.25 
Q 42.1875 58.59375 43.75 50 
Q 45.3125 41.40625 44.71875 30.265625 
Q 44.140625 19.140625 40.8125 12.109375 
Q 37.5 5.078125 30.859375 2.34375 
Q 24.21875 -0.390625 17.578125 2.921875 
Q 10.9375 6.25 8.203125 11.71875 
Q 5.46875 17.1875 4.296875 23.234375 
Q 3.125 29.296875 3.90625 50 
z
M 12.890625 52.734375 
Q 10.546875 31.25 12.5 22.84375 
Q 14.453125 14.453125 18.9375 10.9375 
Q 23.4375 7.421875 28.125 9.5625 
Q 32.8125 11.71875 34.953125 18.15625 
Q 37.109375 24.609375 37.109375 32.21875 
Q 37.109375 39.84375 36.515625 46.09375 
Q 35.9375 52.34375 33 57.421875 
Q 30.078125 62.5 25.1875 62.6875 
Q 20.3125 62.890625 16.59375 57.8125 
Q 12.890625 52.734375 10.546875 31.25 
z
" id="SimHei-48"/>
      </defs>
      <g transform="translate(70.057727 290.687)scale(0.1 -0.1)">
       <use xlink:href="#SimHei-48"/>
      </g>
     </g>
    </g>
    <g id="xtick_2">
     <g id="line2d_2">
      <g>
       <use style="stroke:#000000;stroke-width:0.8;" x="137.553632" xlink:href="#m7f93af3669" y="276.812"/>
      </g>
     </g>
     <g id="text_2">
      <!-- 200 -->
      <defs>
       <path d="M 4.6875 3.90625 
Q 5.078125 9.765625 10.15625 14.453125 
Q 15.234375 19.140625 23.046875 29.09375 
Q 30.859375 39.0625 33.203125 44.53125 
Q 35.546875 50 34.953125 53.90625 
Q 34.375 57.8125 31.25 60.34375 
Q 28.125 62.890625 24.015625 62.5 
Q 19.921875 62.109375 16.203125 59.375 
Q 12.5 56.640625 10.546875 51.171875 
L 3.125 52.34375 
Q 6.25 61.328125 11.125 65.421875 
Q 16.015625 69.53125 22.65625 69.921875 
Q 26.5625 70.3125 29.6875 69.71875 
Q 32.8125 69.140625 36.125 66.984375 
Q 39.453125 64.84375 41.59375 60.546875 
Q 43.75 56.25 43.15625 50.1875 
Q 42.578125 44.140625 37.109375 35.734375 
Q 31.640625 27.34375 16.015625 9.375 
L 44.140625 9.375 
L 44.140625 2.34375 
L 4.6875 2.34375 
z
" id="SimHei-50"/>
      </defs>
      <g transform="translate(130.053632 290.687)scale(0.1 -0.1)">
       <use xlink:href="#SimHei-50"/>
       <use x="50" xlink:href="#SimHei-48"/>
       <use x="100" xlink:href="#SimHei-48"/>
      </g>
     </g>
    </g>
    <g id="xtick_3">
     <g id="line2d_3">
      <g>
       <use style="stroke:#000000;stroke-width:0.8;" x="202.549537" xlink:href="#m7f93af3669" y="276.812"/>
      </g>
     </g>
     <g id="text_3">
      <!-- 400 -->
      <defs>
       <path d="M 31.25 17.1875 
L 1.171875 17.1875 
L 1.171875 23.828125 
L 32.8125 69.53125 
L 38.671875 69.53125 
L 38.671875 23.828125 
L 48.046875 23.828125 
L 48.046875 17.1875 
L 38.671875 17.1875 
L 38.671875 2.34375 
L 31.25 2.34375 
z
M 31.25 23.828125 
L 31.25 54.6875 
L 9.375 23.828125 
z
" id="SimHei-52"/>
      </defs>
      <g transform="translate(195.049537 290.687)scale(0.1 -0.1)">
       <use xlink:href="#SimHei-52"/>
       <use x="50" xlink:href="#SimHei-48"/>
       <use x="100" xlink:href="#SimHei-48"/>
      </g>
     </g>
    </g>
    <g id="xtick_4">
     <g id="line2d_4">
      <g>
       <use style="stroke:#000000;stroke-width:0.8;" x="267.545442" xlink:href="#m7f93af3669" y="276.812"/>
      </g>
     </g>
     <g id="text_4">
      <!-- 600 -->
      <defs>
       <path d="M 3.515625 19.53125 
Q 4.296875 30.859375 6.046875 34.765625 
Q 7.8125 38.671875 11.328125 44.53125 
L 27.34375 69.53125 
L 36.328125 69.53125 
L 19.921875 43.75 
Q 30.46875 46.484375 36.71875 42.96875 
Q 42.96875 39.453125 45.109375 34.953125 
Q 47.265625 30.46875 47.453125 25.1875 
Q 47.65625 19.921875 45.890625 14.84375 
Q 44.140625 9.765625 39.640625 5.65625 
Q 35.15625 1.5625 27.140625 1.171875 
Q 19.140625 0.78125 13.46875 4.09375 
Q 7.8125 7.421875 5.65625 13.46875 
Q 3.515625 19.53125 4.296875 30.859375 
z
M 12.5 16.015625 
Q 19.53125 8.59375 25.390625 8.203125 
Q 31.25 7.8125 35.15625 12.109375 
Q 39.0625 16.40625 39.0625 24.609375 
Q 39.0625 32.8125 34.171875 35.9375 
Q 29.296875 39.0625 23.234375 38.28125 
Q 17.1875 37.5 14.453125 32.421875 
Q 11.71875 27.34375 12.109375 21.671875 
Q 12.5 16.015625 19.53125 8.59375 
z
" id="SimHei-54"/>
      </defs>
      <g transform="translate(260.045442 290.687)scale(0.1 -0.1)">
       <use xlink:href="#SimHei-54"/>
       <use x="50" xlink:href="#SimHei-48"/>
       <use x="100" xlink:href="#SimHei-48"/>
      </g>
     </g>
    </g>
    <g id="xtick_5">
     <g id="line2d_5">
      <g>
       <use style="stroke:#000000;stroke-width:0.8;" x="332.541347" xlink:href="#m7f93af3669" y="276.812"/>
      </g>
     </g>
     <g id="text_5">
      <!-- 800 -->
      <defs>
       <path d="M 2.734375 16.796875 
Q 2.734375 26.171875 5.078125 30.65625 
Q 7.421875 35.15625 12.890625 37.890625 
Q 8.203125 40.625 6.640625 43.9375 
Q 5.078125 47.265625 4.875 51.5625 
Q 4.6875 55.859375 6.046875 58.984375 
Q 7.421875 62.109375 10.15625 64.84375 
Q 12.890625 67.578125 16.203125 68.546875 
Q 19.53125 69.53125 23.4375 69.53125 
Q 27.34375 69.53125 30.46875 68.75 
Q 33.59375 67.96875 37.109375 65.421875 
Q 40.625 62.890625 42.1875 58.203125 
Q 43.75 53.515625 41.984375 47.265625 
Q 40.234375 41.015625 32.8125 37.5 
Q 39.453125 35.546875 42.1875 31.4375 
Q 44.921875 27.34375 44.921875 21.484375 
Q 44.921875 15.625 43.15625 12.109375 
Q 41.40625 8.59375 39.25 6.25 
Q 37.109375 3.90625 33.390625 2.53125 
Q 29.6875 1.171875 24.015625 1.171875 
Q 18.359375 1.171875 14.25 2.53125 
Q 10.15625 3.90625 7.421875 6.640625 
Q 4.6875 9.375 3.703125 13.078125 
Q 2.734375 16.796875 2.734375 26.171875 
z
M 10.9375 26.5625 
Q 10.546875 17.1875 12.296875 13.671875 
Q 14.0625 10.15625 18.75 9.171875 
Q 23.4375 8.203125 28.515625 9.375 
Q 33.59375 10.546875 35.546875 14.84375 
Q 37.5 19.140625 36.90625 23.4375 
Q 36.328125 27.734375 32.03125 30.65625 
Q 27.734375 33.59375 22.65625 33.203125 
Q 17.578125 32.8125 14.25 29.6875 
Q 10.9375 26.5625 10.546875 17.1875 
z
M 12.109375 56.25 
Q 12.109375 48.4375 14.84375 44.921875 
Q 17.578125 41.40625 23.4375 41.40625 
Q 29.296875 41.40625 32.21875 44.921875 
Q 35.15625 48.4375 34.953125 53.3125 
Q 34.765625 58.203125 31.4375 60.546875 
Q 28.125 62.890625 22.453125 62.5 
Q 16.796875 62.109375 14.453125 59.171875 
Q 12.109375 56.25 12.109375 48.4375 
z
" id="SimHei-56"/>
      </defs>
      <g transform="translate(325.041347 290.687)scale(0.1 -0.1)">
       <use xlink:href="#SimHei-56"/>
       <use x="50" xlink:href="#SimHei-48"/>
       <use x="100" xlink:href="#SimHei-48"/>
      </g>
     </g>
    </g>
    <g id="xtick_6">
     <g id="line2d_6">
      <g>
       <use style="stroke:#000000;stroke-width:0.8;" x="397.537252" xlink:href="#m7f93af3669" y="276.812"/>
      </g>
     </g>
     <g id="text_6">
      <!-- 1000 -->
      <defs>
       <path d="M 21.875 56.25 
Q 16.796875 51.171875 8.984375 46.484375 
L 8.984375 53.90625 
Q 18.75 60.546875 25 69.53125 
L 29.6875 69.53125 
L 29.6875 2.34375 
L 21.875 2.34375 
z
" id="SimHei-49"/>
      </defs>
      <g transform="translate(387.537252 290.687)scale(0.1 -0.1)">
       <use xlink:href="#SimHei-49"/>
       <use x="50" xlink:href="#SimHei-48"/>
       <use x="100" xlink:href="#SimHei-48"/>
       <use x="150" xlink:href="#SimHei-48"/>
      </g>
     </g>
    </g>
    <g id="text_7">
     <!-- Number of Generation -->
     <defs>
      <path d="M 44.53125 1.953125 
L 34.765625 1.953125 
L 13.28125 50.390625 
L 12.890625 50.390625 
L 12.890625 1.953125 
L 3.90625 1.953125 
L 3.90625 68.75 
L 13.671875 68.75 
L 35.15625 20.3125 
L 35.546875 20.3125 
L 35.546875 68.75 
L 44.53125 68.75 
z
" id="SimHei-78"/>
      <path d="M 43.75 1.953125 
L 35.9375 1.953125 
L 35.9375 10.15625 
Q 32.8125 5.859375 29.09375 3.515625 
Q 25.390625 1.171875 19.53125 1.171875 
Q 12.5 1.171875 8.984375 5.078125 
Q 5.46875 8.984375 5.46875 14.84375 
L 5.46875 45.703125 
L 13.28125 45.703125 
L 13.28125 17.578125 
Q 13.28125 12.890625 15.625 10.15625 
Q 17.96875 7.421875 21.875 7.421875 
Q 26.953125 7.421875 31.4375 12.6875 
Q 35.9375 17.96875 35.9375 25.78125 
L 35.9375 45.703125 
L 43.75 45.703125 
z
" id="SimHei-117"/>
      <path d="M 47.65625 1.953125 
L 39.84375 1.953125 
L 39.84375 33.59375 
Q 39.84375 35.9375 39.0625 37.5 
Q 38.28125 39.0625 35.9375 39.0625 
Q 33.203125 39.0625 30.859375 36.125 
Q 28.515625 33.203125 28.515625 28.515625 
L 28.515625 1.953125 
L 20.703125 1.953125 
L 20.703125 33.59375 
Q 20.703125 35.9375 19.921875 37.5 
Q 19.140625 39.0625 16.796875 39.0625 
Q 14.0625 39.0625 11.71875 36.125 
Q 9.375 33.203125 9.375 28.515625 
L 9.375 1.953125 
L 1.5625 1.953125 
L 1.5625 45.703125 
L 9.375 45.703125 
L 9.375 39.84375 
Q 11.328125 42.96875 14.0625 44.71875 
Q 16.796875 46.484375 19.921875 46.484375 
Q 23.046875 46.484375 25.1875 44.71875 
Q 27.34375 42.96875 28.125 39.84375 
Q 30.078125 42.96875 32.609375 44.71875 
Q 35.15625 46.484375 38.28125 46.484375 
Q 42.96875 46.484375 45.3125 43.9375 
Q 47.65625 41.40625 47.65625 36.71875 
z
" id="SimHei-109"/>
      <path d="M 44.140625 23.828125 
Q 44.140625 12.5 38.671875 6.828125 
Q 33.203125 1.171875 25.390625 1.171875 
Q 21.09375 1.171875 17.96875 2.734375 
Q 14.84375 4.296875 12.5 7.8125 
L 12.5 1.953125 
L 4.6875 1.953125 
L 4.6875 68.75 
L 12.5 68.75 
L 12.5 39.84375 
Q 14.84375 43.359375 17.96875 45.109375 
Q 21.09375 46.875 25.390625 46.875 
Q 33.203125 46.875 38.671875 41.015625 
Q 44.140625 35.15625 44.140625 23.828125 
z
M 35.546875 23.828125 
Q 35.546875 31.25 32.609375 35.546875 
Q 29.6875 39.84375 23.828125 39.84375 
Q 19.140625 39.84375 15.8125 35.546875 
Q 12.5 31.25 12.5 23.828125 
Q 12.5 16.40625 15.8125 12.296875 
Q 19.140625 8.203125 23.828125 8.203125 
Q 29.6875 8.203125 32.609375 12.296875 
Q 35.546875 16.40625 35.546875 23.828125 
z
" id="SimHei-98"/>
      <path d="M 44.53125 16.796875 
Q 43.75 9.765625 38.28125 5.46875 
Q 32.8125 1.171875 25.390625 1.171875 
Q 16.015625 1.171875 9.953125 7.21875 
Q 3.90625 13.28125 3.90625 23.828125 
Q 3.90625 34.375 9.953125 40.421875 
Q 16.015625 46.484375 25.390625 46.484375 
Q 33.59375 46.484375 38.859375 41.203125 
Q 44.140625 35.9375 44.140625 23.828125 
L 12.5 23.828125 
Q 12.5 15.234375 16.203125 11.71875 
Q 19.921875 8.203125 25.390625 8.203125 
Q 29.6875 8.203125 32.421875 10.34375 
Q 35.15625 12.5 35.9375 16.796875 
z
M 35.15625 30.078125 
Q 34.375 35.546875 31.640625 37.6875 
Q 28.90625 39.84375 24.609375 39.84375 
Q 20.703125 39.84375 17.578125 37.6875 
Q 14.453125 35.546875 12.890625 30.078125 
z
" id="SimHei-101"/>
      <path d="M 39.0625 37.890625 
Q 31.640625 39.0625 26.5625 35.734375 
Q 21.484375 32.421875 17.96875 24.21875 
L 17.96875 1.953125 
L 10.15625 1.953125 
L 10.15625 45.703125 
L 17.96875 45.703125 
L 17.96875 34.375 
Q 21.484375 40.625 26.75 43.546875 
Q 32.03125 46.484375 39.0625 46.484375 
z
" id="SimHei-114"/>
      <path id="SimHei-32"/>
      <path d="M 45.703125 23.828125 
Q 45.703125 13.671875 39.453125 7.421875 
Q 33.203125 1.171875 24.609375 1.171875 
Q 16.015625 1.171875 9.765625 7.421875 
Q 3.515625 13.671875 3.515625 23.828125 
Q 3.515625 33.984375 9.765625 40.234375 
Q 16.015625 46.484375 24.609375 46.484375 
Q 33.203125 46.484375 39.453125 40.234375 
Q 45.703125 33.984375 45.703125 23.828125 
z
M 37.109375 23.828125 
Q 37.109375 31.640625 33.203125 35.546875 
Q 29.296875 39.453125 24.609375 39.453125 
Q 19.921875 39.453125 16.015625 35.546875 
Q 12.109375 31.640625 12.109375 23.828125 
Q 12.109375 16.015625 16.015625 12.109375 
Q 19.921875 8.203125 24.609375 8.203125 
Q 29.296875 8.203125 33.203125 12.109375 
Q 37.109375 16.015625 37.109375 23.828125 
z
" id="SimHei-111"/>
      <path d="M 44.53125 59.765625 
Q 42.578125 60.9375 39.84375 61.71875 
Q 37.109375 62.5 32.8125 62.5 
Q 28.515625 62.5 26.953125 60.34375 
Q 25.390625 58.203125 25.390625 55.078125 
L 25.390625 45.703125 
L 41.40625 45.703125 
L 41.40625 39.453125 
L 25.390625 39.453125 
L 25.390625 1.953125 
L 17.578125 1.953125 
L 17.578125 39.453125 
L 4.296875 39.453125 
L 4.296875 45.703125 
L 17.578125 45.703125 
L 17.578125 54.6875 
Q 17.578125 61.71875 21.875 65.625 
Q 26.171875 69.53125 33.203125 69.53125 
Q 37.5 69.53125 40.03125 68.9375 
Q 42.578125 68.359375 44.53125 67.578125 
z
" id="SimHei-102"/>
      <path d="M 44.53125 1.171875 
L 37.890625 1.171875 
L 36.71875 6.640625 
Q 35.15625 4.296875 31.828125 2.734375 
Q 28.515625 1.171875 24.609375 1.171875 
Q 16.40625 1.171875 9.953125 8.78125 
Q 3.515625 16.40625 3.515625 33.203125 
Q 3.515625 51.5625 9.375 60.546875 
Q 15.234375 69.53125 25.390625 69.53125 
Q 34.375 69.53125 39.453125 62.890625 
Q 44.53125 56.25 44.53125 45.703125 
L 35.9375 45.703125 
Q 35.9375 53.90625 33.203125 58 
Q 30.46875 62.109375 25.390625 62.109375 
Q 19.140625 62.109375 16.015625 55.65625 
Q 12.890625 49.21875 12.890625 33.984375 
Q 12.890625 19.53125 16.796875 14.0625 
Q 20.703125 8.59375 25.78125 8.59375 
Q 30.859375 8.59375 33.78125 12.296875 
Q 36.71875 16.015625 36.71875 23.828125 
L 36.71875 28.125 
L 24.609375 28.125 
L 24.609375 35.546875 
L 44.53125 35.546875 
z
" id="SimHei-71"/>
      <path d="M 43.75 1.953125 
L 35.9375 1.953125 
L 35.9375 30.078125 
Q 35.9375 34.765625 33.59375 37.5 
Q 31.25 40.234375 27.34375 40.234375 
Q 22.265625 40.234375 17.765625 34.953125 
Q 13.28125 29.6875 13.28125 21.875 
L 13.28125 1.953125 
L 5.46875 1.953125 
L 5.46875 45.703125 
L 13.28125 45.703125 
L 13.28125 37.5 
Q 16.40625 41.796875 20.109375 44.140625 
Q 23.828125 46.484375 29.6875 46.484375 
Q 36.71875 46.484375 40.234375 42.578125 
Q 43.75 38.671875 43.75 32.8125 
z
" id="SimHei-110"/>
      <path d="M 44.921875 1.953125 
L 35.546875 1.953125 
Q 34.765625 2.734375 34.375 4.09375 
Q 33.984375 5.46875 33.984375 7.421875 
Q 31.25 4.296875 27.34375 2.734375 
Q 23.4375 1.171875 19.140625 1.171875 
Q 12.890625 1.171875 8.59375 4.296875 
Q 4.296875 7.421875 4.296875 13.28125 
Q 4.296875 19.140625 8.203125 22.65625 
Q 12.109375 26.171875 20.3125 27.34375 
Q 25.78125 28.125 29.875 29.296875 
Q 33.984375 30.46875 33.984375 32.421875 
Q 33.984375 34.765625 32.21875 37.109375 
Q 30.46875 39.453125 24.609375 39.453125 
Q 19.921875 39.453125 17.765625 37.6875 
Q 15.625 35.9375 14.84375 32.8125 
L 6.25 32.8125 
Q 7.03125 39.0625 11.90625 42.765625 
Q 16.796875 46.484375 24.609375 46.484375 
Q 33.203125 46.484375 37.5 42.578125 
Q 41.796875 38.671875 41.796875 31.640625 
L 41.796875 10.15625 
Q 41.796875 7.8125 42.578125 5.859375 
Q 43.359375 3.90625 44.921875 1.953125 
z
M 33.984375 16.40625 
L 33.984375 24.21875 
Q 31.640625 23.4375 29.484375 22.84375 
Q 27.34375 22.265625 22.265625 21.484375 
Q 16.40625 20.703125 14.640625 18.75 
Q 12.890625 16.796875 12.890625 14.0625 
Q 12.890625 11.71875 14.640625 9.953125 
Q 16.40625 8.203125 19.921875 8.203125 
Q 23.4375 8.203125 27.53125 10.15625 
Q 31.640625 12.109375 33.984375 16.40625 
z
" id="SimHei-97"/>
      <path d="M 42.96875 3.125 
Q 41.015625 2.34375 38.46875 1.75 
Q 35.9375 1.171875 31.640625 1.171875 
Q 24.609375 1.171875 20.3125 5.078125 
Q 16.015625 8.984375 16.015625 16.015625 
L 16.015625 39.453125 
L 2.734375 39.453125 
L 2.734375 45.703125 
L 16.015625 45.703125 
L 16.015625 60.9375 
L 23.828125 60.9375 
L 23.828125 45.703125 
L 39.84375 45.703125 
L 39.84375 39.453125 
L 23.828125 39.453125 
L 23.828125 15.625 
Q 23.828125 12.5 25.390625 10.34375 
Q 26.953125 8.203125 31.25 8.203125 
Q 35.546875 8.203125 38.28125 8.984375 
Q 41.015625 9.765625 42.96875 10.9375 
z
" id="SimHei-116"/>
      <path d="M 28.125 58.203125 
L 20.3125 58.203125 
L 20.3125 68.359375 
L 28.125 68.359375 
z
M 28.125 1.953125 
L 20.3125 1.953125 
L 20.3125 45.703125 
L 28.125 45.703125 
z
" id="SimHei-105"/>
     </defs>
     <g transform="translate(184.885 302.812)scale(0.1 -0.1)">
      <use xlink:href="#SimHei-78"/>
      <use x="50" xlink:href="#SimHei-117"/>
      <use x="100" xlink:href="#SimHei-109"/>
      <use x="150" xlink:href="#SimHei-98"/>
      <use x="200" xlink:href="#SimHei-101"/>
      <use x="250" xlink:href="#SimHei-114"/>
      <use x="300" xlink:href="#SimHei-32"/>
      <use x="350" xlink:href="#SimHei-111"/>
      <use x="400" xlink:href="#SimHei-102"/>
      <use x="450" xlink:href="#SimHei-32"/>
      <use x="500" xlink:href="#SimHei-71"/>
      <use x="550" xlink:href="#SimHei-101"/>
      <use x="600" xlink:href="#SimHei-110"/>
      <use x="650" xlink:href="#SimHei-101"/>
      <use x="700" xlink:href="#SimHei-114"/>
      <use x="750" xlink:href="#SimHei-97"/>
      <use x="800" xlink:href="#SimHei-116"/>
      <use x="850" xlink:href="#SimHei-105"/>
      <use x="900" xlink:href="#SimHei-111"/>
      <use x="950" xlink:href="#SimHei-110"/>
     </g>
    </g>
   </g>
   <g id="matplotlib.axis_2">
    <g id="ytick_1">
     <g id="line2d_7">
      <defs>
       <path d="M 0 0 
L -3.5 0 
" id="m4ba283d9f9" style="stroke:#000000;stroke-width:0.8;"/>
      </defs>
      <g>
       <use style="stroke:#000000;stroke-width:0.8;" x="56.325" xlink:href="#m4ba283d9f9" y="257.355001"/>
      </g>
     </g>
     <g id="text_8">
      <!-- 40000 -->
      <g transform="translate(24.325 260.792501)scale(0.1 -0.1)">
       <use xlink:href="#SimHei-52"/>
       <use x="50" xlink:href="#SimHei-48"/>
       <use x="100" xlink:href="#SimHei-48"/>
       <use x="150" xlink:href="#SimHei-48"/>
       <use x="200" xlink:href="#SimHei-48"/>
      </g>
     </g>
    </g>
    <g id="ytick_2">
     <g id="line2d_8">
      <g>
       <use style="stroke:#000000;stroke-width:0.8;" x="56.325" xlink:href="#m4ba283d9f9" y="217.307963"/>
      </g>
     </g>
     <g id="text_9">
      <!-- 60000 -->
      <g transform="translate(24.325 220.745463)scale(0.1 -0.1)">
       <use xlink:href="#SimHei-54"/>
       <use x="50" xlink:href="#SimHei-48"/>
       <use x="100" xlink:href="#SimHei-48"/>
       <use x="150" xlink:href="#SimHei-48"/>
       <use x="200" xlink:href="#SimHei-48"/>
      </g>
     </g>
    </g>
    <g id="ytick_3">
     <g id="line2d_9">
      <g>
       <use style="stroke:#000000;stroke-width:0.8;" x="56.325" xlink:href="#m4ba283d9f9" y="177.260925"/>
      </g>
     </g>
     <g id="text_10">
      <!-- 80000 -->
      <g transform="translate(24.325 180.698425)scale(0.1 -0.1)">
       <use xlink:href="#SimHei-56"/>
       <use x="50" xlink:href="#SimHei-48"/>
       <use x="100" xlink:href="#SimHei-48"/>
       <use x="150" xlink:href="#SimHei-48"/>
       <use x="200" xlink:href="#SimHei-48"/>
      </g>
     </g>
    </g>
    <g id="ytick_4">
     <g id="line2d_10">
      <g>
       <use style="stroke:#000000;stroke-width:0.8;" x="56.325" xlink:href="#m4ba283d9f9" y="137.213887"/>
      </g>
     </g>
     <g id="text_11">
      <!-- 100000 -->
      <g transform="translate(19.325 140.651387)scale(0.1 -0.1)">
       <use xlink:href="#SimHei-49"/>
       <use x="50" xlink:href="#SimHei-48"/>
       <use x="100" xlink:href="#SimHei-48"/>
       <use x="150" xlink:href="#SimHei-48"/>
       <use x="200" xlink:href="#SimHei-48"/>
       <use x="250" xlink:href="#SimHei-48"/>
      </g>
     </g>
    </g>
    <g id="ytick_5">
     <g id="line2d_11">
      <g>
       <use style="stroke:#000000;stroke-width:0.8;" x="56.325" xlink:href="#m4ba283d9f9" y="97.166849"/>
      </g>
     </g>
     <g id="text_12">
      <!-- 120000 -->
      <g transform="translate(19.325 100.604349)scale(0.1 -0.1)">
       <use xlink:href="#SimHei-49"/>
       <use x="50" xlink:href="#SimHei-50"/>
       <use x="100" xlink:href="#SimHei-48"/>
       <use x="150" xlink:href="#SimHei-48"/>
       <use x="200" xlink:href="#SimHei-48"/>
       <use x="250" xlink:href="#SimHei-48"/>
      </g>
     </g>
    </g>
    <g id="ytick_6">
     <g id="line2d_12">
      <g>
       <use style="stroke:#000000;stroke-width:0.8;" x="56.325" xlink:href="#m4ba283d9f9" y="57.119811"/>
      </g>
     </g>
     <g id="text_13">
      <!-- 140000 -->
      <g transform="translate(19.325 60.557311)scale(0.1 -0.1)">
       <use xlink:href="#SimHei-49"/>
       <use x="50" xlink:href="#SimHei-52"/>
       <use x="100" xlink:href="#SimHei-48"/>
       <use x="150" xlink:href="#SimHei-48"/>
       <use x="200" xlink:href="#SimHei-48"/>
       <use x="250" xlink:href="#SimHei-48"/>
      </g>
     </g>
    </g>
    <g id="ytick_7">
     <g id="line2d_13">
      <g>
       <use style="stroke:#000000;stroke-width:0.8;" x="56.325" xlink:href="#m4ba283d9f9" y="17.072773"/>
      </g>
     </g>
     <g id="text_14">
      <!-- 160000 -->
      <g transform="translate(19.325 20.510273)scale(0.1 -0.1)">
       <use xlink:href="#SimHei-49"/>
       <use x="50" xlink:href="#SimHei-54"/>
       <use x="100" xlink:href="#SimHei-48"/>
       <use x="150" xlink:href="#SimHei-48"/>
       <use x="200" xlink:href="#SimHei-48"/>
       <use x="250" xlink:href="#SimHei-48"/>
      </g>
     </g>
    </g>
    <g id="text_15">
     <!-- Value -->
     <defs>
      <path d="M 47.65625 68.75 
L 28.125 1.171875 
L 20.3125 1.171875 
L 0.78125 68.75 
L 10.15625 68.75 
L 23.828125 17.578125 
L 24.609375 17.578125 
L 38.28125 68.75 
z
" id="SimHei-86"/>
      <path d="M 28.515625 1.953125 
L 20.703125 1.953125 
L 20.703125 68.75 
L 28.515625 68.75 
z
" id="SimHei-108"/>
     </defs>
     <g transform="translate(14.075 156.256)rotate(-90)scale(0.1 -0.1)">
      <use xlink:href="#SimHei-86"/>
      <use x="50" xlink:href="#SimHei-97"/>
      <use x="100" xlink:href="#SimHei-108"/>
      <use x="150" xlink:href="#SimHei-117"/>
      <use x="200" xlink:href="#SimHei-101"/>
     </g>
    </g>
   </g>
   <g id="line2d_14">
    <path clip-path="url(#p63960ea8fe)" d="M 72.557727 22.796 
L 73.532666 78.428333 
L 73.857645 95.584205 
L 74.182625 105.034979 
L 74.507604 106.312598 
L 74.832584 105.915741 
L 75.157563 110.240875 
L 75.482543 117.197333 
L 75.807523 135.954675 
L 76.782461 166.064186 
L 77.107441 169.639125 
L 77.43242 169.594008 
L 77.7574 167.302623 
L 78.082379 173.752105 
L 78.407359 175.992228 
L 79.057318 173.115644 
L 79.382297 171.996552 
L 80.032256 177.903026 
L 80.357236 178.430607 
L 80.682215 178.304163 
L 81.007195 180.059685 
L 81.332174 182.800164 
L 81.982133 194.499201 
L 82.307113 198.107995 
L 82.632093 196.704525 
L 82.957072 201.115179 
L 83.282052 201.19689 
L 83.607031 201.413112 
L 84.25699 203.287469 
L 84.58197 205.553537 
L 84.906949 203.446297 
L 85.231929 203.981207 
L 85.556908 210.99776 
L 86.206867 209.045713 
L 86.856826 219.651729 
L 87.506785 223.457612 
L 87.831765 225.261618 
L 88.156744 227.887195 
L 88.481724 228.694486 
L 88.806704 226.051052 
L 89.131683 221.310632 
L 89.456663 225.778863 
L 89.781642 219.895961 
L 90.106622 221.357574 
L 90.756581 228.205698 
L 91.08156 227.92433 
L 91.40654 222.671292 
L 91.731519 220.884132 
L 92.056499 222.659429 
L 92.381478 229.944071 
L 93.031437 225.384002 
L 93.356417 228.045897 
L 93.681396 228.25914 
L 94.006376 230.115236 
L 94.331355 230.580306 
L 94.656335 229.953547 
L 94.981314 218.447517 
L 95.306294 222.414058 
L 95.631274 222.742353 
L 95.956253 223.886609 
L 96.281233 225.824755 
L 96.606212 223.292509 
L 96.931192 227.303761 
L 97.256171 220.335751 
L 97.581151 221.482563 
L 98.23111 229.365464 
L 98.556089 229.815221 
L 98.881069 231.543354 
L 99.206048 233.87292 
L 99.531028 232.000332 
L 99.856007 232.877641 
L 100.180987 232.221595 
L 100.505966 232.741489 
L 100.830946 217.36415 
L 101.155925 217.40541 
L 101.480905 227.926771 
L 101.805885 232.92475 
L 102.130864 231.981688 
L 102.780823 236.291202 
L 103.105803 235.125851 
L 103.430782 236.606679 
L 103.755762 237.215769 
L 104.080741 218.630711 
L 104.405721 216.407737 
L 104.7307 217.613798 
L 105.05568 221.589208 
L 105.380659 219.250183 
L 105.705639 204.611698 
L 106.030618 202.784297 
L 107.005557 224.061288 
L 107.330536 220.475872 
L 107.655516 222.453284 
L 107.980495 226.42669 
L 108.305475 226.127367 
L 108.630455 226.60518 
L 109.280414 225.052654 
L 109.605393 224.661861 
L 109.930373 221.210589 
L 110.255352 225.070167 
L 110.580332 224.348129 
L 110.905311 227.625578 
L 111.230291 226.543638 
L 111.55527 230.751782 
L 111.88025 228.08344 
L 112.530209 225.280835 
L 112.855188 213.079149 
L 113.180168 213.64447 
L 113.505147 220.079566 
L 113.830127 202.787685 
L 114.155106 204.52889 
L 114.480086 205.615086 
L 114.805066 212.326614 
L 115.130045 214.184127 
L 115.455025 213.224462 
L 115.780004 216.842412 
L 116.104984 217.400959 
L 116.429963 216.909717 
L 116.754943 215.186628 
L 117.079922 211.628555 
L 117.404902 211.134571 
L 117.729881 198.51164 
L 118.054861 197.017928 
L 118.37984 197.847062 
L 118.70482 209.061126 
L 119.354779 216.946319 
L 119.679758 215.942959 
L 120.329717 212.145566 
L 120.654697 212.087386 
L 120.979676 215.337728 
L 121.304656 219.772029 
L 121.629636 217.988092 
L 121.954615 213.195058 
L 122.279595 219.010167 
L 122.604574 217.674406 
L 122.929554 220.129542 
L 123.254533 219.476601 
L 123.579513 218.123457 
L 123.904492 219.673522 
L 124.229472 217.857809 
L 124.554451 220.264391 
L 124.879431 221.60699 
L 125.20441 219.472105 
L 125.52939 221.051482 
L 125.854369 220.333824 
L 126.179349 222.500092 
L 126.504328 226.612881 
L 126.829308 224.056645 
L 127.154287 228.660045 
L 127.479267 223.424413 
L 127.804247 203.502186 
L 128.129226 203.528065 
L 128.454206 213.159982 
L 128.779185 203.544651 
L 129.104165 203.086275 
L 129.754124 216.945793 
L 130.079103 223.508989 
L 130.404083 224.95769 
L 130.729062 223.046919 
L 131.054042 223.998444 
L 131.379021 203.849017 
L 131.704001 201.676909 
L 132.02898 208.809384 
L 132.35396 198.763433 
L 132.678939 199.309927 
L 133.003919 204.768183 
L 133.328898 212.146649 
L 133.978857 218.926247 
L 134.303837 218.111672 
L 134.628817 221.202556 
L 134.953796 204.317159 
L 135.278776 201.253636 
L 135.928735 214.390976 
L 136.253714 220.037603 
L 136.578694 213.411614 
L 136.903673 213.381171 
L 137.228653 201.665597 
L 137.553632 197.829226 
L 137.878612 200.635633 
L 138.528571 223.837889 
L 138.85355 223.64912 
L 139.17853 222.141055 
L 139.503509 219.127841 
L 139.828489 219.273095 
L 140.153468 220.647877 
L 140.478448 216.7323 
L 141.128407 219.166013 
L 141.453387 225.924703 
L 141.778366 224.65278 
L 142.103346 207.415579 
L 142.428325 205.641308 
L 142.753305 212.345031 
L 143.078284 215.520623 
L 143.403264 216.911652 
L 143.728243 220.287478 
L 144.053223 208.274685 
L 144.378202 207.915359 
L 144.703182 213.085449 
L 145.028161 215.891339 
L 145.353141 215.370084 
L 145.67812 215.564064 
L 146.0031 218.182761 
L 146.328079 216.899325 
L 146.653059 222.238211 
L 146.978038 223.747104 
L 147.303018 225.931848 
L 147.627998 223.46359 
L 147.952977 222.823204 
L 148.602936 227.192716 
L 148.927916 225.57646 
L 149.252895 224.550406 
L 149.577875 223.143185 
L 149.902854 225.43628 
L 150.227834 208.295045 
L 150.552813 206.444679 
L 150.877793 218.448354 
L 151.202772 225.669262 
L 151.852731 228.934631 
L 152.177711 228.359204 
L 152.50269 230.348577 
L 152.82767 230.760557 
L 153.152649 229.254492 
L 153.477629 228.998704 
L 153.802609 226.689449 
L 154.452568 231.986233 
L 154.777547 231.373393 
L 155.102527 232.913613 
L 155.427506 236.249314 
L 155.752486 235.181886 
L 156.077465 236.807658 
L 156.402445 234.439595 
L 156.727424 234.656323 
L 157.052404 237.222648 
L 157.377383 234.045876 
L 157.702363 235.960863 
L 158.027342 235.903976 
L 158.677301 224.516122 
L 159.002281 223.226507 
L 159.65224 231.833699 
L 159.977219 235.774707 
L 160.302199 235.47499 
L 160.627179 233.025189 
L 160.952158 233.588439 
L 161.277138 233.876252 
L 161.602117 237.254941 
L 161.927097 234.577403 
L 162.577056 232.459431 
L 162.902035 235.451498 
L 163.227015 234.766186 
L 163.551994 233.152669 
L 163.876974 232.544605 
L 164.201953 233.454105 
L 164.526933 237.258445 
L 164.851912 235.932729 
L 165.176892 237.413271 
L 165.501871 233.394823 
L 165.826851 237.524206 
L 166.47681 234.472712 
L 166.80179 235.342873 
L 167.126769 234.433082 
L 167.451749 235.949956 
L 167.776728 236.122173 
L 168.101708 236.430096 
L 168.426687 230.014968 
L 168.751667 229.160139 
L 169.076646 230.250125 
L 169.401626 234.265572 
L 169.726605 235.978112 
L 170.051585 236.294371 
L 170.376564 238.912605 
L 171.351503 240.468544 
L 171.676482 231.040935 
L 172.001462 235.911641 
L 172.326441 237.190717 
L 172.651421 235.839173 
L 172.9764 237.00174 
L 173.30138 239.442771 
L 173.62636 239.827994 
L 173.951339 240.97517 
L 174.276319 242.637451 
L 174.601298 242.605031 
L 174.926278 239.856592 
L 175.251257 239.020303 
L 175.576237 239.711053 
L 175.901216 240.914956 
L 176.226196 239.887541 
L 176.551175 237.720706 
L 176.876155 237.969998 
L 177.201134 236.73977 
L 177.526114 236.899535 
L 177.851093 239.631755 
L 178.176073 238.557535 
L 178.501052 238.836058 
L 178.826032 237.346758 
L 179.151011 240.01787 
L 179.475991 240.934831 
L 179.800971 236.424277 
L 180.12595 237.038051 
L 180.45093 238.151953 
L 180.775909 241.845305 
L 181.100889 237.596373 
L 181.425868 237.793815 
L 181.750848 240.684912 
L 182.075827 241.403247 
L 182.400807 244.110312 
L 182.725786 233.267019 
L 183.050766 235.191462 
L 183.375745 239.010289 
L 184.025704 232.994178 
L 184.350684 234.494515 
L 184.675663 233.648684 
L 185.000643 234.863284 
L 185.325622 234.482649 
L 185.650602 239.468563 
L 185.975581 239.288213 
L 186.300561 241.43952 
L 186.95052 239.189479 
L 187.2755 240.047111 
L 187.600479 238.507908 
L 188.250438 239.940476 
L 188.575418 238.397014 
L 188.900397 237.713444 
L 189.225377 241.778681 
L 189.550356 243.994991 
L 189.875336 245.099652 
L 190.200315 246.769539 
L 190.850274 241.220018 
L 191.175254 241.266657 
L 191.500233 244.000984 
L 191.825213 244.902979 
L 192.150192 222.011196 
L 192.475172 214.376219 
L 192.800152 218.994047 
L 193.125131 211.400219 
L 193.450111 206.482291 
L 194.10007 217.435545 
L 195.399988 231.311505 
L 195.724967 232.231047 
L 196.049947 232.158366 
L 196.374926 235.618176 
L 196.699906 235.602094 
L 197.349865 238.043107 
L 197.674844 237.426836 
L 197.999824 235.427549 
L 198.324803 235.178057 
L 198.649783 236.181954 
L 199.299742 234.574467 
L 199.624722 234.644971 
L 199.949701 233.320633 
L 200.274681 233.883597 
L 200.92464 240.32504 
L 201.249619 239.469283 
L 201.899578 240.873985 
L 202.224558 241.747903 
L 202.549537 240.187449 
L 202.874517 234.668216 
L 203.524476 238.538689 
L 203.849455 220.359132 
L 204.174435 214.111192 
L 204.824394 232.555605 
L 205.149373 236.580124 
L 205.474353 236.755932 
L 205.799333 240.137816 
L 206.124312 238.342488 
L 206.449292 235.475188 
L 206.774271 234.883473 
L 207.099251 236.692027 
L 207.42423 234.163709 
L 207.74921 234.214038 
L 208.074189 236.953538 
L 208.724148 239.672715 
L 209.374107 238.144698 
L 209.699087 232.569044 
L 210.024066 232.301776 
L 210.674025 238.00754 
L 210.999005 240.709476 
L 211.323984 239.587869 
L 211.648964 235.227267 
L 211.973943 235.198287 
L 212.298923 222.634821 
L 212.623903 214.870941 
L 212.948882 218.797051 
L 213.273862 226.453205 
L 213.598841 225.531442 
L 214.2488 234.003198 
L 214.57378 232.915512 
L 214.898759 232.299737 
L 215.223739 231.05436 
L 215.548718 218.343947 
L 215.873698 210.87013 
L 216.198677 212.148559 
L 217.173616 228.530616 
L 217.498595 228.134534 
L 217.823575 230.103126 
L 218.148554 230.653031 
L 218.473534 229.271329 
L 218.798514 232.605487 
L 219.123493 233.88861 
L 219.773452 234.038478 
L 220.098432 236.549152 
L 220.423411 237.938745 
L 220.748391 238.701314 
L 221.07337 236.249473 
L 222.048309 240.59556 
L 222.373288 233.111793 
L 222.698268 230.680124 
L 223.023247 235.13777 
L 223.348227 235.691121 
L 223.673206 238.078573 
L 223.998186 238.645607 
L 224.323165 237.573479 
L 224.648145 235.857704 
L 224.973124 234.750456 
L 225.298104 236.141613 
L 225.623084 233.278409 
L 225.948063 235.032376 
L 226.273043 235.940939 
L 226.598022 233.100563 
L 226.923002 236.124506 
L 227.247981 219.395923 
L 227.89794 214.949722 
L 228.22292 222.854044 
L 228.872879 226.764409 
L 229.197858 229.339548 
L 229.522838 228.446946 
L 229.847817 218.74546 
L 230.172797 213.697936 
L 230.822756 221.616786 
L 231.147735 227.591877 
L 231.472715 228.552966 
L 231.797695 232.015193 
L 232.447654 219.745209 
L 232.772633 221.986869 
L 233.097613 225.681041 
L 233.422592 216.585997 
L 233.747572 216.905098 
L 234.72251 230.557754 
L 235.04749 230.58086 
L 235.372469 227.169888 
L 235.697449 226.547659 
L 236.022428 226.718943 
L 236.347408 229.864663 
L 236.672387 230.892363 
L 236.997367 230.236383 
L 237.322346 228.206042 
L 237.647326 229.768037 
L 237.972305 228.765496 
L 238.297285 228.750025 
L 238.622265 234.54537 
L 239.272224 218.13717 
L 239.597203 214.114068 
L 239.922183 220.986177 
L 240.247162 220.346939 
L 240.572142 223.882898 
L 240.897121 219.708761 
L 241.222101 218.582824 
L 241.87206 233.908678 
L 242.197039 226.299688 
L 242.522019 224.617231 
L 242.846998 225.670274 
L 243.171978 225.120616 
L 243.496957 230.526942 
L 243.821937 230.077487 
L 244.146916 228.971354 
L 244.471896 228.416613 
L 244.796876 231.914096 
L 245.121855 231.253254 
L 245.446835 233.05247 
L 245.771814 231.871918 
L 246.096794 222.268404 
L 246.421773 223.348702 
L 246.746753 228.660161 
L 247.071732 228.869643 
L 247.396712 231.248516 
L 247.721691 232.514167 
L 248.046671 233.282589 
L 248.37165 234.62629 
L 248.69663 233.723135 
L 249.021609 238.096626 
L 249.346589 239.816259 
L 249.671568 238.184845 
L 249.996548 233.793748 
L 250.321527 236.223896 
L 250.646507 234.713683 
L 250.971486 235.642689 
L 251.296466 233.052034 
L 251.621446 236.555191 
L 251.946425 235.508206 
L 252.271405 236.406745 
L 252.596384 236.891032 
L 252.921364 236.36774 
L 253.246343 236.703913 
L 253.896302 243.722729 
L 254.221282 239.841415 
L 254.871241 219.128423 
L 255.5212 210.836578 
L 256.171159 224.223739 
L 256.496138 225.402695 
L 256.821118 226.06381 
L 257.146097 224.810163 
L 257.796057 228.784662 
L 258.121036 232.038702 
L 258.770995 235.764135 
L 259.095975 236.166299 
L 259.420954 226.446628 
L 259.745934 225.203301 
L 260.070913 224.815379 
L 260.395893 225.314027 
L 260.720872 232.203905 
L 261.045852 233.954083 
L 261.370831 229.451114 
L 261.695811 231.152314 
L 262.02079 226.090485 
L 262.34577 225.205687 
L 262.670749 227.560098 
L 262.995729 234.439693 
L 263.320708 235.749753 
L 263.645688 235.747222 
L 263.970667 224.03689 
L 264.295647 218.843279 
L 264.620627 223.127741 
L 264.945606 231.151371 
L 265.270586 233.99883 
L 265.920545 236.716396 
L 266.245524 237.248221 
L 266.570504 239.466965 
L 266.895483 238.25799 
L 267.220463 234.153725 
L 267.545442 223.138282 
L 267.870422 219.916427 
L 268.520381 229.528728 
L 268.84536 233.209595 
L 269.17034 235.511158 
L 269.495319 231.350683 
L 269.820299 230.06598 
L 270.145278 230.774081 
L 270.470258 235.667235 
L 270.795238 235.535977 
L 271.120217 238.58179 
L 271.445197 224.925806 
L 271.770176 220.835198 
L 272.095156 221.109113 
L 272.420135 225.72024 
L 272.745115 227.300264 
L 273.070094 225.11422 
L 273.395074 225.776345 
L 273.720053 227.379943 
L 274.045033 227.872462 
L 274.694992 232.030554 
L 275.344951 227.898908 
L 275.66993 222.270857 
L 275.99491 219.556083 
L 276.319889 223.07755 
L 276.644869 214.964282 
L 276.969848 213.536283 
L 277.294828 211.435139 
L 277.619808 213.659811 
L 278.269767 224.548555 
L 278.594746 227.485434 
L 278.919726 227.224771 
L 279.244705 229.221148 
L 279.569685 219.822244 
L 279.894664 219.266482 
L 280.219644 222.698812 
L 280.869603 226.646639 
L 281.194582 224.400824 
L 281.519562 225.274655 
L 281.844541 227.104298 
L 282.169521 231.701064 
L 282.4945 230.234714 
L 282.81948 221.169164 
L 283.144459 216.121534 
L 283.794419 225.599666 
L 284.119398 222.904978 
L 284.444378 217.109249 
L 284.769357 223.58262 
L 285.094337 223.309149 
L 285.419316 230.951096 
L 285.744296 228.210849 
L 286.069275 231.621728 
L 286.394255 218.625448 
L 286.719234 216.15236 
L 287.044214 220.562606 
L 287.369193 216.976867 
L 287.694173 219.085796 
L 288.344132 205.486235 
L 288.669111 216.001704 
L 288.994091 201.413166 
L 289.31907 201.682528 
L 289.64405 205.34954 
L 289.969029 198.847872 
L 290.294009 203.24816 
L 290.943968 216.735394 
L 291.593927 225.003138 
L 291.918907 217.84333 
L 292.243886 218.330819 
L 292.568866 227.632752 
L 292.893845 231.504393 
L 293.218825 230.541877 
L 293.543804 224.332238 
L 293.868784 212.690981 
L 294.193763 208.576185 
L 294.518743 213.558184 
L 294.843722 214.656401 
L 295.168702 211.751478 
L 295.493681 213.573097 
L 296.46862 202.650433 
L 296.7936 209.967143 
L 297.118579 213.427987 
L 297.443559 212.293656 
L 297.768538 215.918585 
L 298.093518 202.635927 
L 298.418497 207.129094 
L 298.743477 214.077028 
L 299.068456 223.714308 
L 299.393436 224.825842 
L 299.718415 227.678885 
L 300.368374 230.323459 
L 300.693354 212.065747 
L 301.018333 208.647507 
L 301.343313 210.071237 
L 301.668292 215.571718 
L 301.993272 212.467986 
L 302.318251 214.00675 
L 302.643231 214.192877 
L 302.96821 212.656319 
L 303.29319 214.185948 
L 303.61817 207.425332 
L 303.943149 212.459773 
L 304.268129 206.409539 
L 304.593108 205.370897 
L 304.918088 208.741694 
L 305.243067 214.276284 
L 305.568047 221.848764 
L 306.218006 203.591695 
L 306.542985 205.916261 
L 306.867965 211.863734 
L 307.192944 214.338827 
L 307.517924 222.944292 
L 307.842903 224.747517 
L 308.817842 232.294163 
L 309.142821 233.250511 
L 309.467801 232.910958 
L 309.792781 235.06311 
L 310.11776 234.734077 
L 310.44274 234.593549 
L 310.767719 234.952865 
L 311.092699 237.169344 
L 311.417678 219.842079 
L 312.067637 222.043254 
L 312.392617 225.756772 
L 312.717596 226.729964 
L 313.042576 229.152118 
L 313.367555 219.056775 
L 313.692535 221.05215 
L 314.017514 226.829109 
L 314.342494 230.337654 
L 314.667473 225.600265 
L 314.992453 218.615414 
L 315.317432 219.570725 
L 315.642412 224.498532 
L 315.967391 225.751364 
L 316.292371 229.730951 
L 316.617351 232.201006 
L 316.94233 233.215765 
L 317.26731 222.431588 
L 317.592289 222.547338 
L 317.917269 225.479711 
L 318.567228 233.855815 
L 318.892207 235.832926 
L 319.542166 231.869979 
L 319.867146 227.111629 
L 320.192125 229.934228 
L 320.517105 223.847589 
L 321.167064 227.787676 
L 321.817023 232.989044 
L 322.142002 232.385379 
L 322.466982 233.18627 
L 322.791962 233.496082 
L 323.116941 231.797723 
L 323.441921 234.556104 
L 323.7669 226.113709 
L 324.09188 223.647163 
L 324.416859 223.848988 
L 324.741839 229.908343 
L 325.066818 233.264917 
L 325.391798 219.273004 
L 325.716777 220.169519 
L 326.041757 227.185247 
L 326.366736 218.893615 
L 326.691716 214.450095 
L 327.016695 216.727666 
L 327.341675 216.025817 
L 327.666654 219.830275 
L 327.991634 226.268322 
L 328.316613 229.652931 
L 328.641593 235.006124 
L 328.966572 234.434712 
L 329.291552 235.097195 
L 329.616532 234.122065 
L 329.941511 236.002896 
L 330.266491 235.375161 
L 330.59147 231.381923 
L 330.91645 233.018207 
L 331.241429 233.527901 
L 331.566409 232.43327 
L 332.216368 236.35239 
L 332.541347 240.317671 
L 332.866327 240.986187 
L 333.191306 241.115519 
L 333.516286 240.590588 
L 333.841265 240.911368 
L 334.166245 239.237498 
L 334.491224 239.177657 
L 334.816204 238.278385 
L 335.141183 236.362491 
L 335.466163 240.448381 
L 335.791143 229.551862 
L 336.116122 223.993044 
L 336.441102 224.284155 
L 336.766081 231.561823 
L 337.41604 239.664042 
L 337.74102 238.992545 
L 338.065999 238.637705 
L 338.390979 244.507446 
L 338.715958 242.930706 
L 339.040938 243.326175 
L 339.365917 242.722518 
L 340.015876 242.411595 
L 340.340856 244.865848 
L 340.990815 239.415028 
L 341.315794 240.142879 
L 341.640774 238.233593 
L 342.290733 244.782835 
L 342.615713 245.889487 
L 342.940692 243.969493 
L 343.265672 242.751982 
L 343.590651 229.742299 
L 343.915631 230.523572 
L 344.24061 233.955636 
L 344.56559 230.035028 
L 344.890569 233.642765 
L 345.215549 217.824094 
L 345.540528 220.570473 
L 345.865508 215.526181 
L 346.190487 214.139979 
L 346.515467 217.406378 
L 346.840446 223.697971 
L 347.165426 224.118171 
L 347.490405 224.148835 
L 347.815385 231.4762 
L 348.140364 234.398004 
L 348.465344 234.648998 
L 348.790324 226.010204 
L 349.115303 220.889498 
L 349.440283 223.866793 
L 350.090242 231.748208 
L 350.415221 233.621706 
L 350.740201 233.713141 
L 351.06518 234.748242 
L 351.39016 237.541007 
L 351.715139 235.946818 
L 352.040119 237.943989 
L 352.365098 240.746562 
L 353.015057 235.473885 
L 353.340037 236.233234 
L 353.665016 237.501589 
L 353.989996 237.831418 
L 354.314975 235.740609 
L 354.639955 228.523433 
L 354.964934 230.648715 
L 355.289914 234.431382 
L 355.614894 236.14994 
L 356.264853 237.803119 
L 356.589832 241.475823 
L 356.914812 238.564796 
L 357.239791 237.482482 
L 357.564771 237.990534 
L 357.88975 242.596218 
L 358.21473 242.651832 
L 358.539709 242.50568 
L 359.189668 234.110929 
L 359.514648 226.320101 
L 359.839627 229.081011 
L 360.164607 238.586442 
L 360.489586 239.72247 
L 360.814566 231.456486 
L 361.139545 236.935158 
L 361.464525 238.861743 
L 361.789505 237.102855 
L 362.114484 238.529759 
L 362.439464 237.183466 
L 362.764443 241.874649 
L 363.089423 241.483687 
L 363.414402 243.494192 
L 363.739382 234.513094 
L 364.064361 235.319704 
L 365.0393 244.834438 
L 365.364279 235.652739 
L 365.689259 222.235166 
L 366.014238 223.537635 
L 366.664197 233.912787 
L 366.989177 234.50578 
L 367.639136 218.674934 
L 367.964115 224.07745 
L 368.289095 224.510761 
L 368.614075 227.75053 
L 368.939054 233.625845 
L 369.264034 235.286212 
L 369.589013 224.895803 
L 370.238972 223.460966 
L 370.888931 234.677501 
L 371.213911 234.639015 
L 371.53889 238.005922 
L 371.86387 239.820583 
L 372.513829 230.943558 
L 372.838808 236.611055 
L 373.163788 235.609789 
L 373.488767 236.695598 
L 373.813747 236.497035 
L 374.138726 234.292059 
L 374.463706 235.445697 
L 374.788686 237.112532 
L 375.113665 237.514043 
L 375.438645 235.522274 
L 375.763624 239.670863 
L 376.413583 241.223701 
L 376.738563 236.600035 
L 377.063542 236.171007 
L 378.038481 241.254481 
L 378.36346 230.534554 
L 378.68844 226.214793 
L 379.013419 229.564575 
L 379.338399 231.291181 
L 379.663378 236.148641 
L 379.988358 225.664419 
L 380.313337 225.706712 
L 380.638317 232.158466 
L 380.963296 234.608172 
L 381.288276 227.470701 
L 381.613256 231.133838 
L 381.938235 231.719944 
L 382.263215 235.628526 
L 382.588194 234.727897 
L 382.913174 239.585849 
L 383.238153 236.840918 
L 383.563133 237.813196 
L 383.888112 237.240691 
L 384.213092 238.688278 
L 384.538071 239.128096 
L 384.863051 238.292207 
L 385.18803 239.907373 
L 385.51301 240.956758 
L 385.837989 240.808078 
L 386.487948 239.38809 
L 386.812928 243.789653 
L 387.137907 237.739157 
L 387.462887 239.791225 
L 387.787867 236.335308 
L 388.112846 240.160197 
L 388.762805 238.670957 
L 389.087785 239.036736 
L 389.412764 240.324158 
L 389.737744 231.447293 
L 390.062723 229.798516 
L 390.387703 225.009056 
L 390.712682 225.321032 
L 391.037662 230.338822 
L 391.362641 221.633087 
L 391.687621 219.444958 
L 392.33758 220.120247 
L 392.662559 221.712012 
L 392.987539 226.483358 
L 393.312518 228.950102 
L 393.637498 229.097022 
L 393.962477 228.259601 
L 394.612437 233.450597 
L 394.937416 220.495226 
L 395.262396 223.471045 
L 395.587375 217.17792 
L 395.912355 216.254993 
L 396.237334 228.554721 
L 396.562314 231.007818 
L 396.887293 230.469939 
L 397.212273 231.529375 
L 397.212273 231.529375 
" style="fill:none;stroke:#1f77b4;stroke-linecap:square;stroke-width:1.5;"/>
   </g>
   <g id="line2d_15">
    <path clip-path="url(#p63960ea8fe)" d="M 72.557727 77.938935 
L 73.532666 119.805128 
L 73.857645 122.551091 
L 74.182625 129.521359 
L 74.507604 130.517005 
L 74.832584 145.169952 
L 75.157563 152.877506 
L 75.482543 169.454369 
L 75.807523 178.80171 
L 76.457482 187.936532 
L 77.107441 188.087346 
L 77.43242 190.234761 
L 78.407359 201.34134 
L 78.732338 204.085525 
L 79.057318 202.771854 
L 79.382297 202.479065 
L 80.032256 207.966868 
L 80.357236 206.070483 
L 80.682215 208.036516 
L 81.007195 215.203914 
L 81.332174 214.808339 
L 82.632093 220.207299 
L 82.957072 218.901256 
L 83.282052 220.545649 
L 83.607031 227.603463 
L 83.932011 228.530568 
L 84.25699 228.060902 
L 84.58197 228.226346 
L 84.906949 229.263967 
L 85.231929 231.725161 
L 85.556908 232.805105 
L 85.881888 234.313721 
L 86.206867 238.659094 
L 86.531847 239.427658 
L 86.856826 240.892421 
L 87.181806 240.069694 
L 87.831765 242.547888 
L 88.481724 242.879292 
L 88.806704 243.435217 
L 89.131683 246.53965 
L 89.456663 246.967221 
L 89.781642 243.842487 
L 90.106622 243.760302 
L 90.431601 244.207909 
L 90.756581 243.840244 
L 91.08156 244.207909 
L 91.731519 243.668621 
L 92.056499 245.75775 
L 92.381478 246.046146 
L 92.706458 246.852075 
L 93.031437 247.064573 
L 93.356417 248.701994 
L 93.681396 248.411259 
L 94.006376 249.536207 
L 95.306294 249.428245 
L 95.631274 249.433897 
L 95.956253 249.270498 
L 96.281233 247.937155 
L 96.606212 247.940798 
L 96.931192 250.089707 
L 97.581151 250.601474 
L 97.90613 250.836179 
L 98.23111 251.234208 
L 98.556089 252.295783 
L 98.881069 251.42494 
L 99.531028 254.156272 
L 99.856007 252.98198 
L 100.505966 254.156272 
L 100.830946 250.535015 
L 101.155925 251.006811 
L 101.480905 254.23004 
L 101.805885 254.004326 
L 102.130864 254.166019 
L 102.455844 255.963096 
L 102.780823 256.450286 
L 103.105803 255.861399 
L 103.430782 255.825927 
L 103.755762 256.165368 
L 104.080741 254.743599 
L 104.405721 250.359834 
L 104.7307 248.402075 
L 105.05568 247.82544 
L 105.380659 246.313457 
L 105.705639 239.996672 
L 106.355598 244.404979 
L 107.005557 241.25231 
L 107.330536 242.851902 
L 107.655516 245.020142 
L 107.980495 245.135862 
L 108.955434 246.334561 
L 109.280414 245.412646 
L 109.605393 246.095955 
L 109.930373 245.138399 
L 110.255352 245.845272 
L 110.580332 244.127721 
L 111.230291 246.577414 
L 111.55527 245.952813 
L 111.88025 248.239887 
L 112.205229 245.169927 
L 112.530209 248.22965 
L 112.855188 246.754808 
L 113.180168 246.453417 
L 113.505147 246.826449 
L 114.480086 239.833706 
L 114.805066 236.397424 
L 115.130045 236.380358 
L 115.455025 236.935595 
L 115.780004 237.208824 
L 116.104984 238.061777 
L 116.429963 237.604349 
L 116.754943 236.549279 
L 117.079922 236.62553 
L 117.404902 236.362158 
L 117.729881 231.583287 
L 118.37984 232.096223 
L 118.70482 236.162035 
L 119.029799 235.912777 
L 119.354779 236.408795 
L 119.679758 237.168543 
L 120.004738 237.252302 
L 120.329717 237.109753 
L 120.654697 236.398005 
L 120.979676 238.841134 
L 121.304656 238.415823 
L 121.629636 240.236999 
L 121.954615 240.258059 
L 122.604574 239.451356 
L 122.929554 239.682522 
L 123.254533 240.83756 
L 123.904492 242.084288 
L 124.229472 241.767682 
L 124.554451 242.792241 
L 124.879431 243.40411 
L 125.20441 241.182856 
L 126.179349 248.049181 
L 126.504328 245.770716 
L 126.829308 248.295662 
L 127.154287 246.866512 
L 127.479267 248.062695 
L 128.129226 245.516927 
L 128.454206 247.231296 
L 128.779185 242.064818 
L 129.104165 240.983116 
L 129.429144 240.804838 
L 130.729062 245.480384 
L 131.054042 245.256722 
L 131.379021 238.792083 
L 132.02898 239.860093 
L 132.35396 236.185214 
L 132.678939 236.73253 
L 133.003919 238.868678 
L 133.328898 241.861386 
L 133.978857 243.481251 
L 134.303837 242.867474 
L 134.628817 243.481251 
L 134.953796 239.150773 
L 135.278776 241.667995 
L 135.603755 242.489464 
L 135.928735 242.711679 
L 136.578694 243.481077 
L 136.903673 244.486653 
L 137.228653 237.449638 
L 137.553632 235.948012 
L 137.878612 239.532544 
L 138.203591 240.201451 
L 138.528571 241.263327 
L 138.85355 240.997367 
L 139.17853 241.538852 
L 139.503509 243.161068 
L 139.828489 241.511146 
L 140.153468 242.519743 
L 140.803428 245.43364 
L 141.128407 244.406373 
L 141.778366 247.712371 
L 142.103346 243.165305 
L 142.428325 244.357355 
L 142.753305 243.639084 
L 143.403264 238.764845 
L 143.728243 239.76861 
L 144.053223 238.764845 
L 144.378202 238.716205 
L 144.703182 238.410054 
L 145.028161 240.026896 
L 145.353141 242.220284 
L 145.67812 241.818849 
L 146.0031 238.370116 
L 146.328079 242.740919 
L 146.653059 241.666103 
L 147.303018 242.702367 
L 147.627998 244.154218 
L 147.952977 243.4748 
L 148.277957 245.74824 
L 148.602936 245.442089 
L 148.927916 246.61465 
L 149.252895 243.647355 
L 149.577875 246.807366 
L 149.902854 246.807366 
L 150.227834 236.988639 
L 150.552813 248.118404 
L 150.877793 248.315989 
L 151.202772 248.20725 
L 151.527752 248.608684 
L 151.852731 246.61676 
L 152.177711 247.668373 
L 152.50269 250.358045 
L 152.82767 249.638342 
L 153.152649 251.821814 
L 153.477629 250.491643 
L 153.802609 252.564304 
L 154.127588 252.021767 
L 154.452568 253.284007 
L 154.777547 251.932213 
L 155.102527 254.614178 
L 155.427506 254.014353 
L 155.752486 253.866213 
L 156.077465 253.287283 
L 156.727424 254.74311 
L 157.052404 254.596999 
L 157.377383 255.076801 
L 157.702363 253.183056 
L 158.027342 253.362587 
L 158.677301 249.046343 
L 159.002281 250.671365 
L 159.32726 250.604092 
L 159.65224 251.684059 
L 159.977219 250.604092 
L 160.302199 251.684059 
L 160.627179 251.685863 
L 160.952158 253.290419 
L 161.602117 252.861534 
L 161.927097 251.656119 
L 162.252076 252.385332 
L 162.577056 252.2074 
L 162.902035 252.203465 
L 163.227015 251.193993 
L 163.551994 251.746071 
L 163.876974 253.151492 
L 164.201953 251.746633 
L 164.526933 252.132176 
L 165.176892 253.356246 
L 165.501871 252.47857 
L 165.826851 253.356246 
L 166.47681 254.218492 
L 166.80179 254.304224 
L 167.126769 255.598823 
L 167.451749 255.36197 
L 167.776728 254.288989 
L 168.101708 254.941781 
L 168.426687 253.765002 
L 168.751667 253.473495 
L 169.401626 255.373969 
L 169.726605 257.399993 
L 170.051585 257.102263 
L 170.376564 257.240025 
L 170.701544 259.154804 
L 171.026523 258.020624 
L 171.351503 258.411624 
L 171.676482 258.466173 
L 172.001462 258.283221 
L 172.326441 258.476231 
L 172.651421 256.39706 
L 172.9764 257.025329 
L 173.30138 257.36523 
L 173.62636 259.340989 
L 173.951339 259.514968 
L 174.276319 258.646957 
L 174.601298 261.051746 
L 174.926278 260.537352 
L 175.251257 259.632316 
L 175.576237 259.093202 
L 175.901216 259.852926 
L 176.226196 257.86434 
L 176.551175 260.463453 
L 176.876155 260.223443 
L 177.201134 259.780802 
L 177.851093 259.320924 
L 178.176073 258.32009 
L 178.501052 258.764809 
L 178.826032 260.186247 
L 179.151011 258.546311 
L 179.475991 259.068845 
L 179.800971 257.66983 
L 180.45093 258.269519 
L 180.775909 258.346002 
L 181.100889 259.259849 
L 181.425868 259.500033 
L 181.750848 260.919179 
L 182.075827 262.92234 
L 182.725786 261.21862 
L 183.050766 261.9396 
L 183.375745 261.346354 
L 183.700725 261.080288 
L 184.350684 262.89565 
L 184.675663 262.809918 
L 185.000643 261.129578 
L 185.325622 260.770611 
L 185.650602 260.072127 
L 185.975581 261.40065 
L 186.300561 261.637357 
L 186.625541 261.621774 
L 186.95052 260.579093 
L 187.2755 260.268127 
L 187.600479 261.342325 
L 187.925459 261.579032 
L 188.250438 260.183403 
L 188.575418 261.819875 
L 188.900397 261.664767 
L 189.225377 261.2319 
L 189.550356 261.453024 
L 189.875336 260.951527 
L 190.200315 261.406629 
L 190.525295 260.536504 
L 191.500233 261.014261 
L 191.825213 260.916765 
L 192.150192 256.584931 
L 192.475172 254.486275 
L 192.800152 255.331492 
L 193.125131 252.716371 
L 193.450111 252.419796 
L 193.77509 251.216606 
L 194.10007 248.779792 
L 194.750029 251.272803 
L 195.075008 250.928427 
L 195.399988 251.330179 
L 195.724967 250.369405 
L 196.049947 251.571018 
L 196.374926 251.9666 
L 196.699906 252.878466 
L 197.024885 254.975807 
L 197.349865 255.112907 
L 197.674844 254.287734 
L 197.999824 252.647577 
L 198.324803 254.287734 
L 198.974762 253.219014 
L 199.299742 254.287734 
L 199.624722 253.730068 
L 199.949701 253.650063 
L 200.274681 257.80732 
L 200.59966 259.156438 
L 200.92464 258.482732 
L 201.249619 259.642015 
L 201.574599 258.810484 
L 201.899578 258.867819 
L 202.224558 257.741764 
L 202.549537 257.343493 
L 202.874517 257.799099 
L 203.199496 257.400828 
L 203.524476 258.469549 
L 203.849455 248.968102 
L 204.174435 257.400828 
L 204.499414 258.469549 
L 204.824394 259.027215 
L 205.149373 257.635727 
L 205.474353 259.027215 
L 205.799333 257.958495 
L 206.449292 257.230602 
L 206.774271 258.85933 
L 207.099251 258.185624 
L 207.42423 256.215781 
L 207.74921 258.464867 
L 208.074189 257.565606 
L 208.399169 257.733492 
L 208.724148 257.733492 
L 209.049128 258.195533 
L 209.374107 257.696305 
L 209.699087 257.915634 
L 210.349046 257.588155 
L 210.674025 261.291732 
L 210.999005 259.24818 
L 211.323984 259.220701 
L 211.648964 260.289421 
L 211.973943 259.619262 
L 212.623903 249.902764 
L 212.948882 257.165624 
L 213.273862 255.560522 
L 213.598841 257.987651 
L 214.2488 255.585304 
L 214.898759 256.806007 
L 215.223739 257.894809 
L 215.548718 250.138599 
L 215.873698 245.324392 
L 216.198677 244.859556 
L 216.523657 245.322826 
L 216.848636 247.431415 
L 217.173616 248.272878 
L 217.498595 248.232847 
L 217.823575 250.584182 
L 218.148554 249.750259 
L 218.473534 250.179999 
L 218.798514 251.076829 
L 219.123493 250.37233 
L 219.448473 251.590771 
L 219.773452 251.930212 
L 220.098432 252.95746 
L 220.423411 254.514982 
L 220.748391 254.361042 
L 221.07337 254.568654 
L 221.39835 256.64913 
L 222.048309 256.503156 
L 222.373288 255.5456 
L 222.698268 255.153281 
L 223.023247 255.586148 
L 223.348227 258.281175 
L 223.673206 257.050682 
L 223.998186 257.028021 
L 224.323165 256.520838 
L 224.648145 256.386427 
L 224.973124 255.651052 
L 225.298104 255.513952 
L 225.623084 254.463028 
L 225.948063 253.907838 
L 226.273043 253.596506 
L 226.923002 253.622699 
L 227.247981 249.420348 
L 227.572961 254.067835 
L 227.89794 253.35294 
L 228.22292 253.505291 
L 228.547899 251.150513 
L 228.872879 251.347773 
L 229.197858 253.090225 
L 229.522838 252.386261 
L 229.847817 249.322591 
L 230.172797 248.737521 
L 230.497776 250.67008 
L 231.147735 250.74799 
L 231.472715 250.67008 
L 231.797695 250.440857 
L 232.122674 249.724613 
L 232.447654 249.86665 
L 232.772633 246.92134 
L 233.097613 248.294105 
L 233.422592 248.86852 
L 233.747572 245.720712 
L 234.072551 250.489365 
L 234.397531 250.079716 
L 234.72251 251.267019 
L 235.04749 250.734652 
L 235.372469 250.907598 
L 235.697449 251.240572 
L 236.022428 250.18286 
L 236.347408 249.658194 
L 236.672387 250.835904 
L 236.997367 250.592141 
L 237.322346 251.385716 
L 237.647326 251.683154 
L 237.972305 254.068596 
L 238.297285 254.448873 
L 238.622265 254.446643 
L 238.947244 250.957611 
L 239.272224 252.072162 
L 239.597203 251.331327 
L 239.922183 253.61354 
L 240.247162 251.212667 
L 240.572142 251.33841 
L 240.897121 250.663875 
L 241.222101 252.342808 
L 241.54708 252.53009 
L 241.87206 253.860868 
L 242.522019 250.051969 
L 242.846998 254.011503 
L 243.171978 250.869661 
L 243.496957 251.613896 
L 243.821937 252.693964 
L 244.146916 252.918979 
L 244.471896 252.520709 
L 244.796876 252.333427 
L 245.121855 255.427597 
L 245.446835 255.240316 
L 245.771814 254.816876 
L 246.096794 249.152354 
L 246.421773 254.816876 
L 246.746753 255.004158 
L 247.071732 254.941332 
L 247.396712 255.080113 
L 247.721691 257.008145 
L 248.37165 254.344344 
L 248.69663 255.413064 
L 249.346589 255.812758 
L 249.671568 256.260509 
L 250.321527 256.073227 
L 250.646507 255.529123 
L 250.971486 256.260509 
L 251.621446 255.598716 
L 251.946425 259.05677 
L 252.271405 258.878627 
L 252.596384 258.269251 
L 252.921364 258.447394 
L 253.246343 259.333523 
L 253.571323 259.718563 
L 253.896302 259.25732 
L 254.221282 259.854073 
L 254.871241 250.250495 
L 255.19622 249.518844 
L 255.5212 250.11936 
L 255.846179 249.691394 
L 256.171159 247.609887 
L 256.496138 249.691394 
L 256.821118 248.872469 
L 257.146097 252.112061 
L 257.471077 252.310622 
L 257.796057 253.874212 
L 258.446016 254.444916 
L 258.770995 254.012104 
L 259.095975 255.525415 
L 259.420954 249.457999 
L 259.745934 250.102411 
L 260.070913 249.667362 
L 260.395893 252.978672 
L 260.720872 253.928678 
L 261.045852 253.163247 
L 261.370831 253.584669 
L 261.695811 255.65463 
L 262.02079 252.103978 
L 262.34577 251.546312 
L 262.670749 254.351712 
L 262.995729 255.096963 
L 263.320708 255.549555 
L 263.645688 254.37 
L 263.970667 252.182738 
L 264.295647 257.067612 
L 264.620627 254.638564 
L 264.945606 255.012712 
L 265.270586 254.638564 
L 265.595565 257.958527 
L 265.920545 258.286811 
L 266.245524 257.864931 
L 266.570504 258.934554 
L 266.895483 259.011185 
L 267.220463 258.583002 
L 267.545442 248.260058 
L 267.870422 259.337889 
L 268.195401 258.992615 
L 268.520381 258.940479 
L 268.84536 258.497591 
L 269.17034 255.819804 
L 269.495319 258.421337 
L 269.820299 256.518816 
L 270.145278 256.562201 
L 270.470258 257.931208 
L 270.795238 257.588284 
L 271.120217 258.342739 
L 271.445197 254.023684 
L 271.770176 254.73373 
L 272.095156 252.150508 
L 272.420135 253.036694 
L 272.745115 251.14077 
L 273.070094 251.65359 
L 273.395074 251.409928 
L 273.720053 253.579231 
L 274.045033 253.144182 
L 274.370012 253.205024 
L 274.694992 253.970303 
L 275.019971 254.24635 
L 275.344951 255.34034 
L 275.66993 254.857743 
L 275.99491 254.824301 
L 276.319889 255.124339 
L 276.644869 246.908279 
L 276.969848 248.210623 
L 277.294828 246.575692 
L 277.944787 249.491208 
L 278.269767 249.196966 
L 278.919726 250.936034 
L 279.569685 250.969648 
L 279.894664 250.445768 
L 280.219644 248.466651 
L 280.544623 249.617502 
L 280.869603 249.465105 
L 281.194582 250.621851 
L 281.844541 251.120976 
L 282.169521 252.646693 
L 282.4945 252.784524 
L 282.81948 247.128616 
L 283.144459 250.151728 
L 283.469439 254.290967 
L 283.794419 256.042525 
L 284.119398 249.835722 
L 284.444378 254.997646 
L 284.769357 254.68104 
L 285.094337 253.70023 
L 285.419316 256.117632 
L 285.744296 254.665619 
L 286.069275 255.503549 
L 286.394255 252.006103 
L 286.719234 254.158945 
L 287.044214 253.231836 
L 287.369193 249.490584 
L 287.694173 250.476131 
L 288.019152 240.157592 
L 288.344132 241.172144 
L 288.669111 240.214588 
L 288.994091 238.690675 
L 289.31907 238.125344 
L 290.294009 243.34939 
L 290.943968 243.504786 
L 291.268948 243.507605 
L 291.593927 246.374227 
L 292.568866 250.668095 
L 292.893845 250.231802 
L 293.218825 250.657239 
L 293.543804 243.784031 
L 293.868784 242.953827 
L 294.193763 243.765608 
L 295.168702 244.956743 
L 295.493681 244.956743 
L 295.818661 240.615379 
L 296.14364 242.815177 
L 296.46862 244.147424 
L 296.7936 242.299957 
L 297.118579 244.659941 
L 297.768538 241.469222 
L 298.093518 237.906331 
L 298.418497 245.04748 
L 298.743477 245.442486 
L 299.068456 245.07719 
L 299.393436 247.890948 
L 299.718415 249.642635 
L 300.043395 249.621035 
L 300.368374 249.409617 
L 300.693354 245.996857 
L 301.018333 246.066128 
L 301.343313 244.084578 
L 301.668292 241.390327 
L 301.993272 241.135689 
L 302.318251 243.433235 
L 302.643231 240.270948 
L 302.96821 241.183883 
L 303.61817 244.384266 
L 303.943149 244.91951 
L 304.268129 244.868283 
L 304.593108 241.323766 
L 304.918088 243.670026 
L 305.243067 243.195515 
L 305.568047 243.594471 
L 305.893026 237.314924 
L 306.218006 236.455296 
L 306.542985 239.346661 
L 306.867965 239.870173 
L 307.192944 241.265115 
L 308.167883 247.963033 
L 308.492862 248.203042 
L 308.817842 249.428997 
L 309.142821 249.540638 
L 309.467801 250.470348 
L 309.792781 252.119209 
L 310.11776 252.541893 
L 310.44274 252.133767 
L 310.767719 252.541893 
L 311.092699 252.541893 
L 311.417678 251.676667 
L 311.742658 252.752888 
L 312.067637 252.075582 
L 312.392617 251.825555 
L 312.717596 252.808534 
L 313.042576 252.834337 
L 314.017514 251.609715 
L 314.342494 253.673657 
L 314.667473 253.955766 
L 314.992453 253.137058 
L 315.317432 253.318301 
L 315.642412 253.671745 
L 315.967391 251.95254 
L 316.292371 252.879123 
L 316.617351 254.782592 
L 316.94233 255.628677 
L 317.26731 253.547428 
L 317.592289 253.310722 
L 317.917269 254.286902 
L 318.242248 254.554134 
L 318.567228 254.259353 
L 318.892207 254.169883 
L 319.217187 254.895329 
L 319.542166 254.598579 
L 319.867146 252.954185 
L 320.192125 253.015125 
L 320.517105 252.452257 
L 320.842084 252.49672 
L 321.167064 252.945758 
L 321.492043 253.186781 
L 321.817023 252.496886 
L 322.142002 253.69101 
L 322.466982 253.69101 
L 322.791962 253.957527 
L 323.116941 253.521234 
L 323.441921 253.523644 
L 323.7669 252.480454 
L 324.416859 253.20844 
L 324.741839 255.534981 
L 325.066818 255.534981 
L 325.391798 253.101632 
L 325.716777 252.043813 
L 326.041757 251.98941 
L 326.366736 249.659569 
L 326.691716 249.583319 
L 327.016695 249.961925 
L 327.341675 248.267062 
L 327.666654 248.814378 
L 327.991634 250.94379 
L 328.316613 250.94379 
L 328.641593 251.734081 
L 328.966572 254.211041 
L 329.291552 254.107886 
L 329.616532 254.670298 
L 329.941511 256.386341 
L 330.266491 256.335421 
L 330.59147 256.152581 
L 330.91645 255.323465 
L 331.241429 254.918329 
L 331.566409 255.826912 
L 331.891388 259.600215 
L 332.216368 259.600215 
L 332.541347 260.18819 
L 332.866327 261.061703 
L 333.191306 261.326728 
L 333.516286 261.41493 
L 333.841265 260.970053 
L 334.166245 261.41493 
L 334.491224 260.970053 
L 334.816204 261.40292 
L 335.141183 260.79569 
L 335.466163 260.743765 
L 335.791143 254.757608 
L 336.116122 254.580502 
L 336.441102 255.28803 
L 336.766081 258.382339 
L 337.091061 259.089868 
L 337.41604 259.495003 
L 337.74102 258.712649 
L 338.065999 260.448359 
L 339.040938 260.963411 
L 339.365917 260.47609 
L 339.690897 262.929521 
L 340.015876 263.416841 
L 340.340856 263.166814 
L 340.665835 261.461207 
L 340.990815 262.707306 
L 341.315794 262.005466 
L 341.640774 260.736862 
L 341.965753 260.981982 
L 342.290733 261.730051 
L 342.615713 261.414848 
L 342.940692 261.87947 
L 343.265672 261.625815 
L 343.590651 260.543303 
L 343.915631 260.574939 
L 344.24061 260.103559 
L 344.56559 259.829593 
L 344.890569 258.357753 
L 345.215549 253.78046 
L 345.540528 252.282943 
L 345.865508 251.507942 
L 346.190487 252.574512 
L 346.515467 250.284125 
L 346.840446 250.15266 
L 347.165426 252.758049 
L 347.490405 251.27938 
L 347.815385 256.091581 
L 348.140364 255.328825 
L 348.465344 257.102339 
L 348.790324 257.425736 
L 349.115303 257.580844 
L 349.440283 256.726792 
L 349.765262 257.580844 
L 350.415221 257.580844 
L 350.740201 257.142414 
L 351.39016 258.136269 
L 351.715139 259.344591 
L 352.040119 259.907824 
L 352.365098 260.013469 
L 352.690078 259.061649 
L 353.015057 259.317378 
L 353.340037 259.20953 
L 353.665016 257.651115 
L 353.989996 258.866606 
L 354.314975 259.322652 
L 354.639955 258.369296 
L 354.964934 258.808257 
L 355.289914 258.534291 
L 355.614894 258.808257 
L 355.939873 258.62099 
L 356.264853 259.24455 
L 356.589832 259.507619 
L 356.914812 259.426881 
L 357.239791 260.951676 
L 357.564771 261.118145 
L 357.88975 260.578213 
L 358.21473 260.492481 
L 358.539709 261.856259 
L 358.864689 262.117888 
L 359.189668 259.408797 
L 359.514648 261.317872 
L 360.164607 262.399128 
L 360.489586 262.61389 
L 360.814566 264.716 
L 361.139545 263.955281 
L 361.464525 262.61389 
L 361.789505 261.884602 
L 362.114484 263.398387 
L 362.439464 264.140966 
L 363.089423 263.603307 
L 363.739382 263.725851 
L 364.064361 263.485012 
L 364.389341 263.58128 
L 364.71432 264.615716 
L 365.0393 263.896559 
L 365.364279 260.623673 
L 365.689259 255.471736 
L 366.014238 258.751594 
L 366.339218 257.955928 
L 366.664197 258.751594 
L 366.989177 258.70843 
L 367.314156 257.519507 
L 367.639136 254.550591 
L 367.964115 257.194459 
L 368.614075 256.295177 
L 368.939054 256.677658 
L 369.264034 256.42763 
L 369.589013 254.723295 
L 369.913993 255.22956 
L 370.238972 255.319031 
L 370.563952 255.834564 
L 370.888931 256.016472 
L 371.213911 256.430449 
L 371.53889 256.51992 
L 371.86387 256.304812 
L 372.513829 256.55912 
L 372.838808 256.556302 
L 373.163788 255.8038 
L 373.488767 256.038505 
L 374.463706 257.447148 
L 374.788686 257.008719 
L 375.113665 257.447148 
L 375.438645 258.13156 
L 375.763624 257.632299 
L 376.088604 259.150284 
L 376.413583 258.119588 
L 376.738563 255.972166 
L 377.388522 259.93438 
L 378.038481 260.13002 
L 378.36346 256.175954 
L 378.68844 256.297939 
L 379.338399 259.246879 
L 379.663378 258.529794 
L 379.988358 258.690232 
L 380.313337 259.004304 
L 380.638317 258.701449 
L 381.288276 258.760416 
L 381.613256 258.02903 
L 381.938235 258.16103 
L 382.263215 257.893845 
L 382.588194 258.271064 
L 382.913174 256.754726 
L 383.238153 258.201601 
L 383.563133 261.201845 
L 383.888112 261.33546 
L 384.538071 260.638854 
L 384.863051 261.016072 
L 385.18803 260.638854 
L 385.51301 260.447467 
L 385.837989 260.523022 
L 386.162969 260.223713 
L 386.487948 260.638854 
L 386.812928 259.012996 
L 387.137907 259.564038 
L 387.462887 259.148897 
L 387.787867 259.564038 
L 388.112846 259.450562 
L 388.437826 260.983815 
L 388.762805 259.716003 
L 389.087785 260.867425 
L 389.412764 260.903856 
L 389.737744 258.51457 
L 390.712682 254.697207 
L 391.037662 255.867247 
L 391.362641 255.482079 
L 391.687621 254.41418 
L 392.0126 250.763095 
L 392.33758 251.035265 
L 392.662559 251.035265 
L 392.987539 250.881237 
L 393.312518 251.11864 
L 393.637498 251.620635 
L 393.962477 254.320686 
L 394.287457 254.710943 
L 394.612437 254.405268 
L 394.937416 251.34056 
L 395.262396 251.079331 
L 395.587375 251.077941 
L 396.237334 252.59022 
L 396.562314 250.593173 
L 396.887293 250.653655 
L 397.212273 251.749922 
L 397.212273 251.749922 
" style="fill:none;stroke:#ff7f0e;stroke-linecap:square;stroke-width:1.5;"/>
   </g>
   <g id="patch_3">
    <path d="M 56.325 276.812 
L 56.325 10.7 
" style="fill:none;stroke:#000000;stroke-linecap:square;stroke-linejoin:miter;stroke-width:0.8;"/>
   </g>
   <g id="patch_4">
    <path d="M 413.445 276.812 
L 413.445 10.7 
" style="fill:none;stroke:#000000;stroke-linecap:square;stroke-linejoin:miter;stroke-width:0.8;"/>
   </g>
   <g id="patch_5">
    <path d="M 56.325 276.812 
L 413.445 276.812 
" style="fill:none;stroke:#000000;stroke-linecap:square;stroke-linejoin:miter;stroke-width:0.8;"/>
   </g>
   <g id="patch_6">
    <path d="M 56.325 10.7 
L 413.445 10.7 
" style="fill:none;stroke:#000000;stroke-linecap:square;stroke-linejoin:miter;stroke-width:0.8;"/>
   </g>
   <g id="legend_1">
    <g id="patch_7">
     <path d="M 264.445 47.371875 
L 406.445 47.371875 
Q 408.445 47.371875 408.445 45.371875 
L 408.445 17.7 
Q 408.445 15.7 406.445 15.7 
L 264.445 15.7 
Q 262.445 15.7 262.445 17.7 
L 262.445 45.371875 
Q 262.445 47.371875 264.445 47.371875 
z
" style="fill:#ffffff;opacity:0.8;stroke:#cccccc;stroke-linejoin:miter;"/>
    </g>
    <g id="line2d_16">
     <path d="M 266.445 24.285937 
L 286.445 24.285937 
" style="fill:none;stroke:#1f77b4;stroke-linecap:square;stroke-width:1.5;"/>
    </g>
    <g id="line2d_17"/>
    <g id="text_16">
     <!--  -->
     <defs>
      <path d="M 66.015625 62.5 
Q 66.015625 77.734375 65.625 82.421875 
L 73.828125 82.421875 
Q 73.4375 78.125 73.4375 62.5 
L 93.75 62.5 
Q 93.359375 58.203125 93.359375 50.78125 
L 93.359375 24.21875 
Q 93.359375 19.921875 93.75 14.453125 
L 85.9375 14.453125 
L 85.9375 22.265625 
L 73.4375 22.265625 
L 73.4375 5.859375 
Q 73.4375 -4.296875 73.828125 -10.9375 
L 65.625 -10.9375 
Q 66.015625 -4.296875 66.015625 5.859375 
L 66.015625 22.265625 
L 53.515625 22.265625 
L 53.515625 12.890625 
L 45.703125 12.890625 
Q 46.09375 17.578125 46.09375 23.4375 
L 46.09375 50 
Q 46.09375 58.203125 45.703125 62.5 
L 66.015625 62.5 
z
M 5.46875 50.78125 
Q 11.328125 50.390625 19.140625 50.390625 
L 22.265625 50.390625 
L 22.265625 67.578125 
Q 18.359375 66.40625 8.984375 64.453125 
Q 7.421875 67.96875 5.46875 71.484375 
Q 14.0625 71.875 22.0625 74.015625 
Q 30.078125 76.171875 36.71875 79.6875 
Q 39.0625 76.5625 42.578125 72.265625 
Q 38.671875 71.875 35.9375 71.09375 
Q 33.203125 70.3125 29.6875 69.53125 
L 29.6875 50.390625 
Q 34.765625 50.390625 42.1875 50.78125 
L 42.1875 43.75 
Q 34.765625 44.140625 29.6875 44.140625 
L 29.6875 3.515625 
Q 29.6875 -1.953125 30.078125 -10.15625 
L 21.875 -10.15625 
Q 22.265625 -1.953125 22.265625 3.515625 
L 22.265625 29.296875 
Q 19.140625 21.484375 16.59375 16.796875 
Q 14.0625 12.109375 9.765625 5.46875 
Q 6.640625 9.765625 3.90625 13.28125 
Q 9.375 19.140625 13.859375 26.953125 
Q 18.359375 34.765625 20.3125 44.140625 
L 14.453125 44.140625 
Q 8.984375 44.140625 5.46875 43.75 
z
M 66.015625 28.515625 
L 66.015625 56.25 
L 53.515625 56.25 
L 53.515625 28.515625 
z
M 85.9375 28.515625 
L 85.9375 56.25 
L 73.4375 56.25 
L 73.4375 28.515625 
z
M 37.109375 38.671875 
Q 38.28125 35.9375 40.234375 33.203125 
Q 42.1875 30.46875 44.53125 25.390625 
Q 41.015625 23.828125 37.890625 21.484375 
Q 35.9375 25.78125 34.5625 28.703125 
Q 33.203125 31.640625 30.859375 34.765625 
Q 33.203125 36.328125 37.109375 38.671875 
z
" id="SimHei-31181"/>
      <path d="M 39.0625 -6.640625 
L 39.0625 0.390625 
L 23.046875 0.390625 
L 23.046875 -9.375 
L 15.625 -9.375 
Q 16.015625 -3.515625 16.015625 21.875 
Q 12.890625 17.1875 9.375 13.28125 
Q 7.03125 16.40625 3.125 17.578125 
Q 7.03125 21.484375 10.9375 26.953125 
Q 14.84375 32.421875 16.40625 37.109375 
Q 13.28125 37.109375 8.59375 36.71875 
L 8.59375 43.359375 
Q 14.0625 42.96875 17.578125 42.96875 
Q 18.75 48.828125 18.75 53.125 
Q 10.546875 53.125 5.859375 52.734375 
L 5.859375 59.375 
Q 10.9375 58.984375 18.75 58.984375 
L 18.75 69.921875 
Q 16.40625 69.921875 10.15625 69.53125 
L 10.15625 76.5625 
Q 16.015625 76.171875 19.921875 76.171875 
L 46.09375 76.171875 
Q 45.703125 70.3125 45.703125 58.984375 
Q 48.046875 58.984375 51.171875 59.375 
L 51.171875 52.734375 
Q 48.046875 53.125 45.703125 53.125 
Q 45.703125 41.796875 46.09375 37.109375 
L 23.4375 37.109375 
Q 21.09375 30.078125 19.140625 27.34375 
L 46.484375 27.34375 
Q 46.09375 22.265625 46.09375 10.546875 
Q 46.09375 -1.171875 46.484375 -6.640625 
z
M 76.171875 19.921875 
Q 91.015625 19.921875 94.921875 20.3125 
L 94.921875 13.671875 
Q 91.015625 14.0625 76.171875 14.0625 
L 76.171875 3.515625 
Q 76.171875 -3.515625 76.5625 -10.9375 
L 68.75 -10.9375 
Q 69.140625 -3.515625 69.140625 3.515625 
L 69.140625 14.0625 
Q 55.46875 14.0625 50 13.671875 
L 50 20.3125 
Q 55.46875 19.921875 69.140625 19.921875 
L 69.140625 35.15625 
Q 57.421875 35.15625 53.125 34.765625 
L 53.125 41.40625 
Q 57.8125 41.015625 69.140625 41.015625 
L 69.140625 54.6875 
Q 58.984375 54.6875 52.734375 54.296875 
L 52.734375 60.9375 
Q 58.984375 60.546875 74.21875 60.546875 
Q 78.515625 69.921875 81.640625 80.859375 
Q 86.328125 78.515625 90.625 77.734375 
Q 89.0625 75.390625 86.71875 71.28125 
Q 84.375 67.1875 81.25 60.546875 
Q 87.890625 60.546875 92.96875 60.9375 
L 92.96875 54.296875 
Q 88.28125 54.6875 76.171875 54.6875 
L 76.171875 41.015625 
L 81.640625 41.015625 
L 91.796875 41.40625 
L 91.796875 34.765625 
Q 86.328125 35.15625 76.171875 35.15625 
z
M 39.0625 6.25 
L 39.0625 21.09375 
L 23.046875 21.09375 
L 23.046875 6.25 
z
M 38.671875 58.984375 
L 38.671875 69.921875 
L 25.78125 69.921875 
L 25.78125 58.984375 
z
M 38.671875 42.96875 
L 38.671875 53.125 
L 25.78125 53.125 
Q 25.390625 48.828125 24.609375 42.96875 
z
M 62.890625 65.234375 
Q 59.375 71.875 55.859375 76.953125 
Q 58.59375 78.125 61.328125 80.46875 
Q 64.84375 76.5625 69.140625 69.53125 
Q 65.234375 67.1875 62.890625 65.234375 
z
" id="SimHei-32676"/>
      <path d="M 53.515625 75.390625 
Q 69.921875 51.171875 96.09375 43.359375 
Q 92.1875 38.671875 90.234375 34.375 
Q 64.84375 45.3125 49.21875 69.140625 
Q 34.765625 46.09375 10.546875 33.203125 
Q 8.59375 36.71875 3.90625 40.625 
Q 22.65625 48.4375 33 60.546875 
Q 43.359375 72.65625 46.875 82.421875 
Q 51.5625 80.46875 56.25 78.90625 
Q 54.6875 76.953125 53.515625 75.390625 
z
M 45.703125 36.71875 
Q 45.703125 42.96875 44.921875 52.734375 
L 53.90625 52.734375 
Q 53.515625 46.09375 53.515625 36.328125 
L 53.515625 8.59375 
Q 53.515625 -0.390625 53.90625 -9.765625 
L 45.3125 -9.765625 
Q 45.703125 0 45.703125 8.203125 
z
" id="SimHei-20010"/>
      <path d="M 57.03125 60.15625 
Q 57.03125 74.21875 56.640625 80.078125 
L 64.453125 80.078125 
Q 64.0625 74.609375 64.0625 60.15625 
L 81.25 60.15625 
Q 89.0625 60.15625 92.578125 60.546875 
L 92.578125 53.515625 
Q 89.0625 53.90625 81.25 53.90625 
L 70.703125 53.90625 
Q 76.953125 28.90625 96.875 18.75 
Q 92.578125 16.40625 90.234375 12.109375 
Q 69.140625 28.125 64.0625 53.515625 
L 64.0625 16.015625 
Q 75.390625 16.015625 78.90625 16.40625 
L 78.90625 9.375 
Q 75.390625 9.765625 64.0625 9.765625 
Q 64.0625 1.171875 64.453125 -8.984375 
L 56.640625 -8.984375 
Q 57.03125 1.5625 57.03125 9.765625 
Q 50 9.765625 42.1875 9.375 
L 42.1875 16.40625 
Q 50 16.015625 57.03125 16.015625 
L 57.03125 53.90625 
Q 52.734375 28.125 31.25 10.15625 
Q 28.90625 13.671875 24.21875 16.015625 
Q 44.53125 29.296875 50 53.90625 
L 41.796875 53.90625 
Q 35.546875 53.90625 30.859375 53.515625 
L 30.859375 60.546875 
Q 35.546875 60.15625 41.796875 60.15625 
z
M 31.25 76.5625 
Q 28.515625 73.046875 23.828125 58.984375 
L 23.828125 8.984375 
Q 23.828125 -3.125 24.21875 -8.59375 
L 16.40625 -8.59375 
Q 16.796875 -3.515625 16.796875 8.59375 
L 16.796875 45.3125 
Q 14.84375 41.015625 8.984375 32.03125 
Q 7.03125 35.546875 3.515625 37.890625 
Q 8.203125 42.578125 14.453125 56.4375 
Q 20.703125 70.3125 22.265625 80.078125 
Q 26.5625 78.125 31.25 76.5625 
z
" id="SimHei-20307"/>
      <path d="M 70.703125 75.390625 
Q 76.5625 75.390625 85.15625 75.78125 
L 85.15625 68.359375 
Q 76.953125 68.75 70.703125 68.75 
L 54.296875 68.75 
L 54.296875 31.640625 
L 78.125 31.640625 
Q 86.71875 31.640625 94.140625 32.03125 
L 94.140625 24.609375 
Q 86.71875 25 78.125 25 
L 54.296875 25 
L 54.296875 7.03125 
Q 54.296875 -1.5625 54.6875 -9.375 
L 45.703125 -9.375 
Q 46.09375 -1.5625 46.09375 7.03125 
L 46.09375 25 
L 17.578125 25 
Q 12.109375 25 5.859375 24.609375 
L 5.859375 32.03125 
Q 12.109375 31.640625 18.359375 31.640625 
L 46.09375 31.640625 
L 46.09375 68.75 
L 27.734375 68.75 
Q 21.875 68.75 13.671875 68.359375 
L 13.671875 75.78125 
Q 21.875 75.390625 27.34375 75.390625 
z
M 61.328125 40.625 
Q 70.3125 51.5625 76.5625 64.453125 
Q 80.46875 61.71875 84.375 59.765625 
Q 74.609375 44.53125 67.96875 35.9375 
Q 64.84375 38.671875 61.328125 40.625 
z
M 30.859375 36.71875 
Q 25 48.4375 16.40625 58.203125 
Q 19.53125 60.546875 22.65625 63.28125 
Q 32.421875 51.5625 38.28125 42.578125 
Q 33.59375 39.0625 30.859375 36.71875 
z
" id="SimHei-24179"/>
      <path d="M 90.234375 4.296875 
Q 90.234375 -5.078125 83.78125 -7.03125 
Q 77.34375 -8.984375 69.140625 -9.375 
Q 68.359375 -4.296875 66.40625 0.390625 
Q 77.34375 -0.390625 80.078125 0.96875 
Q 82.8125 2.34375 82.8125 7.8125 
L 83.984375 57.8125 
L 55.46875 57.8125 
Q 53.515625 52.734375 50.96875 47.453125 
Q 48.4375 42.1875 45.703125 37.5 
Q 41.796875 39.84375 38.671875 41.015625 
Q 49.21875 56.640625 54.6875 81.25 
Q 59.375 79.6875 63.671875 78.515625 
Q 62.109375 76.171875 60.546875 72.65625 
Q 58.984375 69.140625 57.421875 64.453125 
L 92.1875 64.453125 
L 90.234375 4.296875 
z
M 19.53125 56.640625 
L 19.53125 68.359375 
Q 19.53125 74.609375 19.140625 79.6875 
L 27.734375 79.6875 
Q 27.34375 73.828125 27.34375 68.359375 
L 27.34375 56.640625 
L 29.6875 56.640625 
Q 34.375 56.640625 39.453125 57.03125 
L 39.453125 49.21875 
Q 34.375 49.609375 29.6875 49.609375 
L 27.34375 49.609375 
L 27.34375 17.1875 
L 39.0625 21.484375 
Q 38.671875 17.578125 39.453125 14.0625 
Q 19.140625 7.421875 15.03125 5.65625 
Q 10.9375 3.90625 7.421875 2.34375 
Q 5.859375 7.421875 3.90625 11.71875 
Q 8.984375 12.5 12.5 13.28125 
Q 16.015625 14.0625 19.53125 15.234375 
L 19.53125 49.609375 
L 17.578125 49.609375 
Q 13.28125 49.609375 6.25 49.21875 
L 6.25 57.03125 
Q 13.28125 56.640625 17.1875 56.640625 
z
M 77.34375 25.390625 
Q 73.046875 22.265625 64.640625 16.40625 
Q 56.25 10.546875 49.609375 4.6875 
Q 46.875 8.984375 44.53125 12.109375 
Q 52.34375 16.40625 58.78125 20.703125 
Q 65.234375 25 74.609375 32.421875 
Q 75.390625 28.90625 77.34375 25.390625 
z
M 58.984375 49.21875 
Q 64.453125 43.75 69.921875 35.9375 
Q 66.40625 33.203125 64.0625 30.859375 
Q 60.9375 36.328125 53.90625 44.140625 
Q 56.25 46.875 58.984375 49.21875 
z
" id="SimHei-22343"/>
      <path d="M 83.984375 76.5625 
Q 83.59375 65.234375 83.59375 55.078125 
L 83.59375 9.375 
Q 83.59375 3.515625 83.984375 -8.59375 
L 75.390625 -8.59375 
L 75.390625 -1.5625 
L 24.609375 -1.5625 
L 24.609375 -8.203125 
L 16.40625 -8.203125 
Q 16.796875 2.34375 16.796875 8.59375 
L 16.796875 55.078125 
Q 16.796875 67.96875 16.40625 76.5625 
L 83.984375 76.5625 
z
M 75.390625 4.6875 
L 75.390625 23.046875 
L 24.609375 23.046875 
L 24.609375 4.6875 
z
M 75.390625 29.296875 
L 75.390625 46.875 
L 24.609375 46.875 
L 24.609375 29.296875 
z
M 75.390625 53.125 
L 75.390625 70.3125 
L 24.609375 70.3125 
L 24.609375 53.125 
z
" id="SimHei-30446"/>
      <path d="M 19.921875 68.75 
Q 19.921875 75 19.53125 80.859375 
L 27.34375 80.859375 
Q 26.953125 75.390625 26.953125 68.75 
L 26.953125 59.375 
Q 33.203125 59.375 40.234375 59.765625 
L 40.234375 52.34375 
Q 33.203125 52.734375 26.953125 52.734375 
L 26.953125 39.453125 
Q 29.6875 41.40625 32.421875 43.75 
Q 37.5 35.546875 41.40625 27.734375 
Q 37.109375 25.78125 33.984375 23.4375 
Q 31.640625 31.25 26.953125 37.890625 
L 26.953125 7.421875 
Q 26.953125 -0.78125 27.34375 -8.984375 
L 19.53125 -8.984375 
Q 19.921875 -0.390625 19.921875 7.421875 
L 19.921875 32.8125 
Q 16.015625 21.875 7.8125 11.71875 
Q 5.46875 14.84375 1.953125 17.578125 
Q 8.59375 24.21875 12.6875 34.171875 
Q 16.796875 44.140625 17.96875 52.734375 
Q 10.546875 52.734375 5.078125 51.953125 
L 5.078125 59.765625 
Q 12.5 59.375 19.921875 59.375 
z
M 80.859375 48.828125 
Q 88.671875 48.828125 94.53125 49.21875 
L 94.53125 41.796875 
Q 88.671875 42.1875 82.421875 42.1875 
L 70.3125 42.1875 
L 70.3125 2.734375 
Q 70.3125 -3.515625 66.796875 -5.46875 
Q 63.28125 -7.421875 54.296875 -8.59375 
Q 53.515625 -3.90625 51.171875 0.390625 
Q 58.984375 0.390625 60.9375 0.96875 
Q 62.890625 1.5625 62.890625 5.46875 
L 62.890625 42.1875 
L 53.125 42.1875 
Q 43.359375 42.1875 39.0625 41.40625 
L 39.0625 49.21875 
Q 44.140625 48.828125 53.125 48.828125 
z
M 76.5625 74.609375 
Q 84.765625 74.609375 89.84375 75 
L 89.84375 67.1875 
Q 82.421875 67.96875 74.21875 67.96875 
L 55.078125 67.96875 
Q 48.828125 67.96875 42.96875 67.1875 
L 42.96875 75 
Q 48.4375 74.609375 55.078125 74.609375 
z
M 82.421875 31.640625 
Q 91.015625 18.359375 96.875 7.8125 
Q 92.578125 5.859375 88.28125 3.125 
Q 83.984375 14.453125 75.390625 26.953125 
Q 79.296875 28.90625 82.421875 31.640625 
z
M 56.25 27.734375 
Q 54.6875 25.390625 50.390625 15.234375 
Q 46.09375 5.078125 43.75 0.78125 
Q 40.234375 2.734375 35.9375 4.296875 
Q 41.015625 12.109375 43.546875 18.546875 
Q 46.09375 25 47.65625 31.25 
Q 51.953125 29.296875 56.25 27.734375 
z
" id="SimHei-26631"/>
      <path d="M 18.75 3.125 
L 81.25 3.125 
L 81.25 34.765625 
Q 81.25 40.625 80.46875 48.046875 
L 89.0625 48.046875 
Q 88.671875 39.0625 88.671875 34.765625 
L 88.671875 0.78125 
Q 88.671875 -4.296875 89.0625 -9.765625 
L 81.25 -9.765625 
L 81.25 -3.515625 
L 10.9375 -3.515625 
Q 11.328125 0.78125 11.328125 21.484375 
Q 11.328125 42.1875 10.9375 48.046875 
L 19.140625 48.046875 
Q 18.75 43.75 18.75 38.671875 
z
M 85.15625 76.953125 
L 85.15625 69.53125 
Q 79.296875 67.578125 69.921875 63.078125 
Q 60.546875 58.59375 54.296875 55.859375 
L 54.296875 17.1875 
Q 54.296875 10.9375 50 9.171875 
Q 45.703125 7.421875 39.453125 6.25 
Q 38.671875 10.546875 36.71875 14.84375 
Q 42.96875 14.84375 45.109375 15.625 
Q 47.265625 16.40625 47.265625 21.484375 
L 47.265625 48.046875 
Q 47.265625 55.46875 46.484375 60.15625 
Q 50.390625 61.328125 57.8125 64.453125 
Q 65.234375 67.578125 70.3125 70.3125 
L 30.46875 70.3125 
Q 22.265625 70.3125 16.015625 69.921875 
L 16.015625 77.34375 
Q 23.828125 76.953125 30.46875 76.953125 
z
M 70.3125 27.34375 
Q 73.4375 24.609375 78.125 19.921875 
Q 75.390625 17.578125 72.65625 14.0625 
Q 68.75 18.359375 65.625 21.484375 
Q 62.5 24.609375 56.25 30.078125 
Q 58.984375 32.8125 60.9375 35.546875 
z
M 42.1875 28.125 
Q 39.453125 26.171875 34.953125 23.234375 
Q 30.46875 20.3125 25 15.625 
Q 23.828125 18.359375 20.703125 22.265625 
Q 23.4375 23.4375 29.484375 27.140625 
Q 35.546875 30.859375 39.84375 34.765625 
Q 40.625 31.640625 42.1875 28.125 
z
M 77.734375 49.609375 
Q 75 48.4375 71.28125 45.5 
Q 67.578125 42.578125 62.5 38.671875 
Q 60.546875 42.1875 58.59375 44.53125 
Q 62.890625 47.65625 65.625 50 
Q 68.359375 52.34375 71.875 55.859375 
Q 74.609375 52.734375 77.734375 49.609375 
z
M 36.71875 39.84375 
Q 34.375 42.96875 31.25 45.890625 
Q 28.125 48.828125 23.046875 52.34375 
Q 25.78125 55.078125 27.34375 57.8125 
Q 31.640625 54.6875 41.40625 46.09375 
Q 38.671875 42.578125 36.71875 39.84375 
z
" id="SimHei-20989"/>
      <path d="M 70.703125 76.953125 
Q 69.921875 75 68.75 71.671875 
Q 67.578125 68.359375 65.234375 59.765625 
L 83.203125 59.765625 
Q 87.109375 59.765625 92.578125 60.15625 
L 92.578125 53.125 
Q 88.28125 53.515625 85.9375 53.515625 
Q 85.9375 47.265625 83.78125 33.78125 
Q 81.640625 20.3125 76.171875 10.546875 
Q 80.078125 5.859375 84.953125 2.140625 
Q 89.84375 -1.5625 94.140625 -3.125 
Q 89.453125 -6.640625 87.890625 -9.765625 
Q 83.203125 -7.03125 79.296875 -3.515625 
Q 75.390625 0 71.484375 5.078125 
Q 67.1875 0.390625 62.296875 -2.921875 
Q 57.421875 -6.25 50 -10.15625 
Q 48.046875 -6.640625 44.53125 -4.6875 
Q 50.390625 -2.34375 57.03125 1.953125 
Q 63.671875 6.25 67.1875 10.546875 
Q 64.453125 16.015625 61.90625 22.265625 
Q 59.375 28.515625 57.421875 38.671875 
Q 56.25 35.546875 53.515625 30.46875 
Q 50.78125 32.03125 46.875 33.59375 
Q 53.125 44.53125 57.03125 57.421875 
Q 60.9375 70.3125 62.109375 79.6875 
Q 66.796875 77.734375 70.703125 76.953125 
z
M 32.8125 35.15625 
Q 31.25 33.59375 29.296875 30.078125 
L 50.78125 30.078125 
Q 48.4375 20.3125 42.578125 10.546875 
Q 48.828125 8.203125 52.34375 6.25 
Q 50.390625 3.515625 48.828125 0.390625 
Q 45.3125 2.734375 38.28125 5.078125 
Q 30.46875 -3.515625 11.328125 -10.15625 
Q 9.375 -5.859375 6.25 -4.296875 
Q 24.609375 0 31.25 7.421875 
Q 20.3125 10.15625 13.28125 12.109375 
Q 15.625 15.625 19.53125 23.828125 
Q 15.625 23.828125 6.640625 23.4375 
L 6.640625 30.46875 
Q 14.0625 30.078125 21.875 30.078125 
Q 23.4375 33.59375 24.21875 37.890625 
Q 28.515625 36.328125 32.8125 35.15625 
z
M 27.734375 61.71875 
Q 27.734375 71.09375 27.34375 79.6875 
L 35.15625 79.6875 
Q 34.765625 71.484375 34.765625 61.71875 
Q 48.046875 61.71875 53.515625 62.109375 
L 53.515625 55.078125 
Q 48.046875 55.46875 34.765625 55.46875 
Q 34.765625 44.140625 35.15625 37.890625 
L 27.34375 37.890625 
Q 27.734375 43.359375 27.734375 51.5625 
Q 25.78125 48.4375 20.3125 43.546875 
Q 14.84375 38.671875 10.15625 35.9375 
Q 8.203125 39.453125 4.296875 41.015625 
Q 7.8125 42.1875 13.671875 46.484375 
Q 19.53125 50.78125 22.65625 55.46875 
Q 14.84375 55.46875 7.8125 55.078125 
L 7.8125 62.109375 
Q 14.453125 61.71875 27.734375 61.71875 
z
M 62.109375 49.609375 
Q 65.625 26.5625 71.875 17.578125 
Q 75.78125 26.5625 77.140625 35.734375 
Q 78.515625 44.921875 78.90625 53.515625 
L 63.671875 53.515625 
L 62.109375 49.609375 
z
M 22.65625 15.625 
Q 27.34375 14.453125 35.546875 12.5 
Q 38.671875 16.40625 41.40625 23.828125 
L 26.953125 23.828125 
Q 25 19.921875 22.65625 15.625 
z
M 51.953125 75.390625 
Q 50 72.265625 48.828125 69.53125 
Q 47.65625 66.796875 45.703125 62.890625 
Q 42.578125 64.453125 39.453125 65.234375 
Q 42.578125 70.3125 45.3125 78.125 
Q 49.21875 76.171875 51.953125 75.390625 
z
M 40.234375 52.734375 
Q 45.3125 47.65625 50 42.578125 
Q 47.65625 40.625 44.921875 37.890625 
Q 39.453125 44.53125 35.9375 48.4375 
Q 38.28125 50.390625 40.234375 52.734375 
z
M 14.453125 78.125 
Q 19.921875 72.65625 23.4375 67.1875 
L 17.578125 63.671875 
Q 14.84375 69.140625 9.375 73.828125 
Q 12.890625 76.171875 14.453125 78.125 
z
" id="SimHei-25968"/>
      <path d="M 57.421875 69.53125 
L 57.421875 79.6875 
Q 62.109375 79.296875 67.96875 78.90625 
Q 66.015625 76.171875 65.625 69.53125 
L 80.078125 69.53125 
Q 86.71875 69.53125 91.796875 69.921875 
L 91.796875 62.890625 
Q 86.328125 63.28125 80.078125 63.28125 
L 65.234375 63.28125 
L 64.453125 54.6875 
L 84.375 54.6875 
Q 83.984375 50 83.984375 42.1875 
L 83.984375 2.34375 
Q 91.796875 2.34375 95.3125 2.734375 
L 95.3125 -4.296875 
Q 90.234375 -3.90625 81.25 -3.90625 
L 44.53125 -3.90625 
Q 35.546875 -3.90625 29.6875 -4.296875 
L 29.6875 2.734375 
Q 33.203125 2.34375 40.625 2.34375 
L 40.625 42.1875 
Q 40.625 49.609375 40.234375 54.6875 
L 56.25 54.6875 
L 57.03125 63.28125 
L 50 63.28125 
Q 40.234375 63.28125 34.765625 62.890625 
L 34.765625 69.921875 
Q 39.84375 69.53125 50 69.53125 
z
M 34.765625 76.5625 
Q 31.640625 73.046875 25.78125 58.59375 
L 25.78125 7.03125 
Q 25.78125 -1.171875 26.171875 -8.59375 
L 17.96875 -8.59375 
Q 18.359375 -1.953125 18.359375 5.859375 
L 18.359375 46.09375 
Q 13.671875 38.28125 9.765625 33.59375 
Q 6.640625 37.890625 3.90625 40.234375 
Q 7.8125 44.140625 14.640625 55.265625 
Q 21.484375 66.40625 25.390625 80.46875 
Q 30.859375 77.734375 34.765625 76.5625 
z
M 76.953125 41.40625 
L 76.953125 49.21875 
L 48.046875 49.21875 
L 48.046875 41.40625 
z
M 76.953125 2.34375 
L 76.953125 9.765625 
L 48.046875 9.765625 
L 48.046875 2.34375 
z
M 76.953125 15.625 
L 76.953125 22.65625 
L 48.046875 22.65625 
L 48.046875 15.625 
z
M 76.953125 28.515625 
L 76.953125 35.546875 
L 48.046875 35.546875 
L 48.046875 28.515625 
z
" id="SimHei-20540"/>
     </defs>
     <g transform="translate(294.445 27.785937)scale(0.1 -0.1)">
      <use xlink:href="#SimHei-31181"/>
      <use x="100" xlink:href="#SimHei-32676"/>
      <use x="200" xlink:href="#SimHei-20010"/>
      <use x="300" xlink:href="#SimHei-20307"/>
      <use x="400" xlink:href="#SimHei-24179"/>
      <use x="500" xlink:href="#SimHei-22343"/>
      <use x="600" xlink:href="#SimHei-30446"/>
      <use x="700" xlink:href="#SimHei-26631"/>
      <use x="800" xlink:href="#SimHei-20989"/>
      <use x="900" xlink:href="#SimHei-25968"/>
      <use x="1000" xlink:href="#SimHei-20540"/>
     </g>
    </g>
    <g id="line2d_18">
     <path d="M 266.445 38.621875 
L 286.445 38.621875 
" style="fill:none;stroke:#ff7f0e;stroke-linecap:square;stroke-width:1.5;"/>
    </g>
    <g id="line2d_19"/>
    <g id="text_17">
     <!--  -->
     <defs>
      <path d="M 7.421875 4.296875 
Q 10.546875 4.6875 17.1875 5.46875 
L 17.1875 38.28125 
Q 12.109375 38.28125 6.640625 37.890625 
L 6.640625 44.53125 
Q 12.109375 44.140625 17.578125 44.140625 
L 78.515625 44.140625 
Q 85.546875 44.140625 92.1875 44.53125 
L 92.1875 37.890625 
Q 85.546875 38.28125 78.515625 38.28125 
L 47.65625 38.28125 
L 47.65625 10.546875 
L 53.125 12.109375 
Q 53.125 8.59375 53.515625 6.25 
Q 50.390625 5.46875 47.65625 5.078125 
Q 47.65625 -1.953125 48.046875 -8.59375 
L 40.625 -8.59375 
Q 41.015625 -1.953125 41.015625 3.90625 
Q 36.71875 3.125 28.3125 1.359375 
Q 19.921875 -0.390625 10.15625 -2.734375 
Q 8.984375 1.5625 7.421875 4.296875 
z
M 79.6875 76.953125 
Q 79.296875 71.875 79.296875 67.578125 
L 79.296875 60.546875 
Q 79.296875 56.25 79.6875 50.78125 
L 19.921875 50.78125 
Q 20.3125 56.25 20.3125 60.546875 
L 20.3125 67.578125 
Q 20.3125 71.875 19.921875 76.953125 
L 79.6875 76.953125 
z
M 51.5625 32.03125 
Q 58.59375 31.640625 64.453125 31.640625 
L 83.984375 31.640625 
Q 79.6875 15.234375 73.828125 6.25 
Q 83.59375 0 92.578125 -1.5625 
Q 89.0625 -4.296875 88.28125 -7.8125 
Q 78.515625 -4.6875 69.921875 2.34375 
Q 64.84375 -3.125 56.25 -8.984375 
Q 54.6875 -6.640625 50.78125 -4.296875 
Q 58.984375 -1.5625 64.84375 5.46875 
Q 58.203125 12.109375 54.6875 26.171875 
L 51.5625 26.171875 
z
M 71.875 66.40625 
L 71.875 71.875 
L 27.34375 71.875 
L 27.34375 66.40625 
z
M 71.875 55.859375 
L 71.875 60.9375 
L 27.34375 60.9375 
L 27.34375 55.859375 
z
M 60.9375 26.171875 
Q 62.5 16.796875 68.75 9.765625 
Q 73.4375 16.40625 75.78125 26.171875 
L 60.9375 26.171875 
z
M 41.015625 19.53125 
L 41.015625 26.171875 
L 23.828125 26.171875 
L 23.828125 19.53125 
z
M 41.015625 8.984375 
L 41.015625 14.453125 
L 23.828125 14.453125 
L 23.828125 6.640625 
z
M 41.015625 31.640625 
L 41.015625 38.28125 
L 23.828125 38.28125 
L 23.828125 31.640625 
z
" id="SimHei-26368"/>
      <path d="M 72.65625 5.46875 
Q 72.265625 1.5625 75.390625 0.78125 
Q 78.515625 0 81.25 0.1875 
Q 83.984375 0.390625 85.34375 1.953125 
Q 86.71875 3.515625 88.28125 12.5 
Q 91.015625 9.765625 96.875 8.203125 
Q 94.53125 -0.390625 92.375 -3.125 
Q 90.234375 -5.859375 85.546875 -6.25 
L 73.4375 -6.25 
Q 65.234375 -6.25 65.234375 3.125 
L 65.234375 47.65625 
L 60.15625 47.65625 
Q 58.203125 9.375 37.109375 -8.59375 
Q 34.375 -5.078125 29.296875 -3.515625 
Q 49.609375 10.546875 52.34375 47.65625 
L 45.3125 47.65625 
Q 36.71875 47.65625 30.859375 47.265625 
L 30.859375 54.296875 
Q 36.71875 53.90625 45.3125 53.90625 
L 52.734375 53.90625 
Q 52.734375 73.4375 52.34375 80.46875 
Q 55.078125 79.6875 61.328125 79.296875 
Q 60.15625 73.4375 60.15625 53.90625 
L 81.25 53.90625 
Q 85.546875 53.90625 92.578125 54.296875 
L 92.578125 47.265625 
Q 85.9375 47.65625 81.640625 47.65625 
L 72.65625 47.65625 
L 72.65625 5.46875 
z
M 3.125 37.109375 
Q 8.203125 42.1875 15.625 56.4375 
Q 23.046875 70.703125 25 81.25 
Q 28.90625 78.90625 34.765625 76.953125 
Q 31.25 73.4375 26.5625 59.765625 
L 26.5625 9.375 
Q 26.5625 -2.34375 26.953125 -8.203125 
L 18.75 -8.203125 
Q 19.140625 -2.734375 19.140625 8.984375 
L 19.140625 46.484375 
Q 14.0625 37.890625 8.59375 30.859375 
Q 6.640625 34.375 3.125 37.109375 
z
M 75.78125 78.515625 
Q 78.125 75 80.46875 71.671875 
Q 82.8125 68.359375 85.15625 65.625 
Q 82.03125 63.671875 78.515625 60.546875 
Q 76.171875 65.234375 69.53125 73.828125 
Q 72.265625 75.78125 75.78125 78.515625 
z
" id="SimHei-20248"/>
     </defs>
     <g transform="translate(294.445 42.121875)scale(0.1 -0.1)">
      <use xlink:href="#SimHei-31181"/>
      <use x="100" xlink:href="#SimHei-32676"/>
      <use x="200" xlink:href="#SimHei-26368"/>
      <use x="300" xlink:href="#SimHei-20248"/>
      <use x="400" xlink:href="#SimHei-20010"/>
      <use x="500" xlink:href="#SimHei-20307"/>
      <use x="600" xlink:href="#SimHei-30446"/>
      <use x="700" xlink:href="#SimHei-26631"/>
      <use x="800" xlink:href="#SimHei-20989"/>
      <use x="900" xlink:href="#SimHei-25968"/>
      <use x="1000" xlink:href="#SimHei-20540"/>
     </g>
    </g>
   </g>
  </g>
 </g>
 <defs>
  <clipPath id="p63960ea8fe">
   <rect height="266.112" width="357.12" x="56.325" y="10.7"/>
  </clipPath>
 </defs>
</svg>
