<?xml version="1.0" encoding="utf-8" standalone="no"?>
<!DOCTYPE svg PUBLIC "-//W3C//DTD SVG 1.1//EN"
  "http://www.w3.org/Graphics/SVG/1.1/DTD/svg11.dtd">
<!-- Created with matplotlib (https://matplotlib.org/) -->
<svg height="312.121375pt" version="1.1" viewBox="0 0 415.590674 312.121375" width="415.590674pt" xmlns="http://www.w3.org/2000/svg" xmlns:xlink="http://www.w3.org/1999/xlink">
 <defs>
  <style type="text/css">
*{stroke-linecap:butt;stroke-linejoin:round;}
  </style>
 </defs>
 <g id="figure_1">
  <g id="patch_1">
   <path d="M 0 312.121375 
L 415.590674 312.121375 
L 415.590674 0 
L 0 0 
z
" style="fill:#ffffff;"/>
  </g>
  <g id="axes_1">
   <g id="patch_2">
    <path d="M 47.535938 276.812 
L 404.655938 276.812 
L 404.655938 10.7 
L 47.535938 10.7 
z
" style="fill:#ffffff;"/>
   </g>
   <g id="matplotlib.axis_1">
    <g id="xtick_1">
     <g id="line2d_1">
      <path clip-path="url(#p12d03c557e)" d="M 63.349864 276.812 
L 63.349864 10.7 
" style="fill:none;stroke:#b0b0b0;stroke-linecap:square;stroke-width:0.8;"/>
     </g>
     <g id="line2d_2">
      <defs>
       <path d="M 0 0 
L 0 3.5 
" id="md22111ec54" style="stroke:#000000;stroke-width:0.8;"/>
      </defs>
      <g>
       <use style="stroke:#000000;stroke-width:0.8;" x="63.349864" xlink:href="#md22111ec54" y="276.812"/>
      </g>
     </g>
     <g id="text_1">
      <!-- 0 -->
      <defs>
       <path d="M 3.125 29.296875 
Q 3.90625 50 6.4375 56.046875 
Q 8.984375 62.109375 13.671875 66.015625 
Q 18.359375 69.921875 25.1875 69.921875 
Q 32.03125 69.921875 37.109375 64.25 
Q 42.1875 58.59375 43.75 50 
Q 45.3125 41.40625 44.71875 30.265625 
Q 44.140625 19.140625 40.8125 12.109375 
Q 37.5 5.078125 30.859375 2.34375 
Q 24.21875 -0.390625 17.578125 2.921875 
Q 10.9375 6.25 8.203125 11.71875 
Q 5.46875 17.1875 4.296875 23.234375 
Q 3.125 29.296875 3.90625 50 
z
M 12.890625 52.734375 
Q 10.546875 31.25 12.5 22.84375 
Q 14.453125 14.453125 18.9375 10.9375 
Q 23.4375 7.421875 28.125 9.5625 
Q 32.8125 11.71875 34.953125 18.15625 
Q 37.109375 24.609375 37.109375 32.21875 
Q 37.109375 39.84375 36.515625 46.09375 
Q 35.9375 52.34375 33 57.421875 
Q 30.078125 62.5 25.1875 62.6875 
Q 20.3125 62.890625 16.59375 57.8125 
Q 12.890625 52.734375 10.546875 31.25 
z
" id="SimHei-48"/>
      </defs>
      <g transform="translate(60.849864 290.687)scale(0.1 -0.1)">
       <use xlink:href="#SimHei-48"/>
      </g>
     </g>
    </g>
    <g id="xtick_2">
     <g id="line2d_3">
      <path clip-path="url(#p12d03c557e)" d="M 105.229965 276.812 
L 105.229965 10.7 
" style="fill:none;stroke:#b0b0b0;stroke-linecap:square;stroke-width:0.8;"/>
     </g>
     <g id="line2d_4">
      <g>
       <use style="stroke:#000000;stroke-width:0.8;" x="105.229965" xlink:href="#md22111ec54" y="276.812"/>
      </g>
     </g>
     <g id="text_2">
      <!-- 1000 -->
      <defs>
       <path d="M 21.875 56.25 
Q 16.796875 51.171875 8.984375 46.484375 
L 8.984375 53.90625 
Q 18.75 60.546875 25 69.53125 
L 29.6875 69.53125 
L 29.6875 2.34375 
L 21.875 2.34375 
z
" id="SimHei-49"/>
      </defs>
      <g transform="translate(95.229965 290.687)scale(0.1 -0.1)">
       <use xlink:href="#SimHei-49"/>
       <use x="50" xlink:href="#SimHei-48"/>
       <use x="100" xlink:href="#SimHei-48"/>
       <use x="150" xlink:href="#SimHei-48"/>
      </g>
     </g>
    </g>
    <g id="xtick_3">
     <g id="line2d_5">
      <path clip-path="url(#p12d03c557e)" d="M 147.110066 276.812 
L 147.110066 10.7 
" style="fill:none;stroke:#b0b0b0;stroke-linecap:square;stroke-width:0.8;"/>
     </g>
     <g id="line2d_6">
      <g>
       <use style="stroke:#000000;stroke-width:0.8;" x="147.110066" xlink:href="#md22111ec54" y="276.812"/>
      </g>
     </g>
     <g id="text_3">
      <!-- 2000 -->
      <defs>
       <path d="M 4.6875 3.90625 
Q 5.078125 9.765625 10.15625 14.453125 
Q 15.234375 19.140625 23.046875 29.09375 
Q 30.859375 39.0625 33.203125 44.53125 
Q 35.546875 50 34.953125 53.90625 
Q 34.375 57.8125 31.25 60.34375 
Q 28.125 62.890625 24.015625 62.5 
Q 19.921875 62.109375 16.203125 59.375 
Q 12.5 56.640625 10.546875 51.171875 
L 3.125 52.34375 
Q 6.25 61.328125 11.125 65.421875 
Q 16.015625 69.53125 22.65625 69.921875 
Q 26.5625 70.3125 29.6875 69.71875 
Q 32.8125 69.140625 36.125 66.984375 
Q 39.453125 64.84375 41.59375 60.546875 
Q 43.75 56.25 43.15625 50.1875 
Q 42.578125 44.140625 37.109375 35.734375 
Q 31.640625 27.34375 16.015625 9.375 
L 44.140625 9.375 
L 44.140625 2.34375 
L 4.6875 2.34375 
z
" id="SimHei-50"/>
      </defs>
      <g transform="translate(137.110066 290.687)scale(0.1 -0.1)">
       <use xlink:href="#SimHei-50"/>
       <use x="50" xlink:href="#SimHei-48"/>
       <use x="100" xlink:href="#SimHei-48"/>
       <use x="150" xlink:href="#SimHei-48"/>
      </g>
     </g>
    </g>
    <g id="xtick_4">
     <g id="line2d_7">
      <path clip-path="url(#p12d03c557e)" d="M 188.990168 276.812 
L 188.990168 10.7 
" style="fill:none;stroke:#b0b0b0;stroke-linecap:square;stroke-width:0.8;"/>
     </g>
     <g id="line2d_8">
      <g>
       <use style="stroke:#000000;stroke-width:0.8;" x="188.990168" xlink:href="#md22111ec54" y="276.812"/>
      </g>
     </g>
     <g id="text_4">
      <!-- 3000 -->
      <defs>
       <path d="M 3.90625 19.140625 
L 10.9375 20.3125 
Q 12.5 15.234375 16.015625 11.90625 
Q 19.53125 8.59375 24.796875 8.78125 
Q 30.078125 8.984375 33.203125 13.078125 
Q 36.328125 17.1875 35.9375 22.453125 
Q 35.546875 27.734375 31.828125 30.65625 
Q 28.125 33.59375 19.921875 34.765625 
L 19.921875 39.84375 
Q 28.125 40.625 31.828125 44.140625 
Q 35.546875 47.65625 35.15625 53.3125 
Q 34.765625 58.984375 30.078125 61.515625 
Q 25.390625 64.0625 20.109375 62.109375 
Q 14.84375 60.15625 11.71875 51.171875 
L 4.6875 52.34375 
Q 7.03125 59.375 11.125 64.0625 
Q 15.234375 68.75 22.265625 69.53125 
Q 29.296875 70.3125 34.5625 67.765625 
Q 39.84375 65.234375 41.984375 59.953125 
Q 44.140625 54.6875 42.578125 48.4375 
Q 41.015625 42.1875 33.59375 37.5 
Q 39.0625 35.15625 41.984375 30.46875 
Q 44.921875 25.78125 43.9375 18.15625 
Q 42.96875 10.546875 37.109375 5.859375 
Q 31.25 1.171875 23.828125 1.359375 
Q 16.40625 1.5625 10.9375 6.046875 
Q 5.46875 10.546875 3.90625 19.140625 
z
" id="SimHei-51"/>
      </defs>
      <g transform="translate(178.990168 290.687)scale(0.1 -0.1)">
       <use xlink:href="#SimHei-51"/>
       <use x="50" xlink:href="#SimHei-48"/>
       <use x="100" xlink:href="#SimHei-48"/>
       <use x="150" xlink:href="#SimHei-48"/>
      </g>
     </g>
    </g>
    <g id="xtick_5">
     <g id="line2d_9">
      <path clip-path="url(#p12d03c557e)" d="M 230.870269 276.812 
L 230.870269 10.7 
" style="fill:none;stroke:#b0b0b0;stroke-linecap:square;stroke-width:0.8;"/>
     </g>
     <g id="line2d_10">
      <g>
       <use style="stroke:#000000;stroke-width:0.8;" x="230.870269" xlink:href="#md22111ec54" y="276.812"/>
      </g>
     </g>
     <g id="text_5">
      <!-- 4000 -->
      <defs>
       <path d="M 31.25 17.1875 
L 1.171875 17.1875 
L 1.171875 23.828125 
L 32.8125 69.53125 
L 38.671875 69.53125 
L 38.671875 23.828125 
L 48.046875 23.828125 
L 48.046875 17.1875 
L 38.671875 17.1875 
L 38.671875 2.34375 
L 31.25 2.34375 
z
M 31.25 23.828125 
L 31.25 54.6875 
L 9.375 23.828125 
z
" id="SimHei-52"/>
      </defs>
      <g transform="translate(220.870269 290.687)scale(0.1 -0.1)">
       <use xlink:href="#SimHei-52"/>
       <use x="50" xlink:href="#SimHei-48"/>
       <use x="100" xlink:href="#SimHei-48"/>
       <use x="150" xlink:href="#SimHei-48"/>
      </g>
     </g>
    </g>
    <g id="xtick_6">
     <g id="line2d_11">
      <path clip-path="url(#p12d03c557e)" d="M 272.75037 276.812 
L 272.75037 10.7 
" style="fill:none;stroke:#b0b0b0;stroke-linecap:square;stroke-width:0.8;"/>
     </g>
     <g id="line2d_12">
      <g>
       <use style="stroke:#000000;stroke-width:0.8;" x="272.75037" xlink:href="#md22111ec54" y="276.812"/>
      </g>
     </g>
     <g id="text_6">
      <!-- 5000 -->
      <defs>
       <path d="M 8.59375 20.703125 
Q 11.328125 10.15625 17.96875 8.984375 
Q 24.609375 7.8125 28.703125 10.34375 
Q 32.8125 12.890625 34.5625 16.984375 
Q 36.328125 21.09375 36.125 26.171875 
Q 35.9375 31.25 33.390625 34.765625 
Q 30.859375 38.28125 26.953125 39.453125 
Q 23.046875 40.625 18.15625 39.453125 
Q 13.28125 38.28125 10.15625 33.984375 
L 3.515625 34.765625 
Q 4.296875 37.109375 10.9375 68.359375 
L 41.796875 68.359375 
L 41.796875 61.328125 
L 16.796875 61.328125 
Q 14.84375 50.78125 12.890625 44.53125 
Q 18.75 47.265625 23.828125 47.0625 
Q 28.90625 46.875 33.59375 44.71875 
Q 38.28125 42.578125 40.421875 38.859375 
Q 42.578125 35.15625 43.546875 31.4375 
Q 44.53125 27.734375 44.328125 23.4375 
Q 44.140625 19.140625 42.578125 14.640625 
Q 41.015625 10.15625 37.890625 7.21875 
Q 34.765625 4.296875 30.265625 2.53125 
Q 25.78125 0.78125 19.921875 1.171875 
Q 14.0625 1.5625 8.78125 5.46875 
Q 3.515625 9.375 1.5625 18.75 
z
" id="SimHei-53"/>
      </defs>
      <g transform="translate(262.75037 290.687)scale(0.1 -0.1)">
       <use xlink:href="#SimHei-53"/>
       <use x="50" xlink:href="#SimHei-48"/>
       <use x="100" xlink:href="#SimHei-48"/>
       <use x="150" xlink:href="#SimHei-48"/>
      </g>
     </g>
    </g>
    <g id="xtick_7">
     <g id="line2d_13">
      <path clip-path="url(#p12d03c557e)" d="M 314.630472 276.812 
L 314.630472 10.7 
" style="fill:none;stroke:#b0b0b0;stroke-linecap:square;stroke-width:0.8;"/>
     </g>
     <g id="line2d_14">
      <g>
       <use style="stroke:#000000;stroke-width:0.8;" x="314.630472" xlink:href="#md22111ec54" y="276.812"/>
      </g>
     </g>
     <g id="text_7">
      <!-- 6000 -->
      <defs>
       <path d="M 3.515625 19.53125 
Q 4.296875 30.859375 6.046875 34.765625 
Q 7.8125 38.671875 11.328125 44.53125 
L 27.34375 69.53125 
L 36.328125 69.53125 
L 19.921875 43.75 
Q 30.46875 46.484375 36.71875 42.96875 
Q 42.96875 39.453125 45.109375 34.953125 
Q 47.265625 30.46875 47.453125 25.1875 
Q 47.65625 19.921875 45.890625 14.84375 
Q 44.140625 9.765625 39.640625 5.65625 
Q 35.15625 1.5625 27.140625 1.171875 
Q 19.140625 0.78125 13.46875 4.09375 
Q 7.8125 7.421875 5.65625 13.46875 
Q 3.515625 19.53125 4.296875 30.859375 
z
M 12.5 16.015625 
Q 19.53125 8.59375 25.390625 8.203125 
Q 31.25 7.8125 35.15625 12.109375 
Q 39.0625 16.40625 39.0625 24.609375 
Q 39.0625 32.8125 34.171875 35.9375 
Q 29.296875 39.0625 23.234375 38.28125 
Q 17.1875 37.5 14.453125 32.421875 
Q 11.71875 27.34375 12.109375 21.671875 
Q 12.5 16.015625 19.53125 8.59375 
z
" id="SimHei-54"/>
      </defs>
      <g transform="translate(304.630472 290.687)scale(0.1 -0.1)">
       <use xlink:href="#SimHei-54"/>
       <use x="50" xlink:href="#SimHei-48"/>
       <use x="100" xlink:href="#SimHei-48"/>
       <use x="150" xlink:href="#SimHei-48"/>
      </g>
     </g>
    </g>
    <g id="xtick_8">
     <g id="line2d_15">
      <path clip-path="url(#p12d03c557e)" d="M 356.510573 276.812 
L 356.510573 10.7 
" style="fill:none;stroke:#b0b0b0;stroke-linecap:square;stroke-width:0.8;"/>
     </g>
     <g id="line2d_16">
      <g>
       <use style="stroke:#000000;stroke-width:0.8;" x="356.510573" xlink:href="#md22111ec54" y="276.812"/>
      </g>
     </g>
     <g id="text_8">
      <!-- 7000 -->
      <defs>
       <path d="M 13.28125 2.34375 
Q 20.3125 32.03125 37.890625 61.328125 
L 4.296875 61.328125 
L 4.296875 68.359375 
L 46.09375 68.359375 
L 46.09375 61.71875 
Q 27.734375 32.03125 21.875 2.34375 
L 13.28125 2.34375 
z
" id="SimHei-55"/>
      </defs>
      <g transform="translate(346.510573 290.687)scale(0.1 -0.1)">
       <use xlink:href="#SimHei-55"/>
       <use x="50" xlink:href="#SimHei-48"/>
       <use x="100" xlink:href="#SimHei-48"/>
       <use x="150" xlink:href="#SimHei-48"/>
      </g>
     </g>
    </g>
    <g id="xtick_9">
     <g id="line2d_17">
      <path clip-path="url(#p12d03c557e)" d="M 398.390674 276.812 
L 398.390674 10.7 
" style="fill:none;stroke:#b0b0b0;stroke-linecap:square;stroke-width:0.8;"/>
     </g>
     <g id="line2d_18">
      <g>
       <use style="stroke:#000000;stroke-width:0.8;" x="398.390674" xlink:href="#md22111ec54" y="276.812"/>
      </g>
     </g>
     <g id="text_9">
      <!-- 8000 -->
      <defs>
       <path d="M 2.734375 16.796875 
Q 2.734375 26.171875 5.078125 30.65625 
Q 7.421875 35.15625 12.890625 37.890625 
Q 8.203125 40.625 6.640625 43.9375 
Q 5.078125 47.265625 4.875 51.5625 
Q 4.6875 55.859375 6.046875 58.984375 
Q 7.421875 62.109375 10.15625 64.84375 
Q 12.890625 67.578125 16.203125 68.546875 
Q 19.53125 69.53125 23.4375 69.53125 
Q 27.34375 69.53125 30.46875 68.75 
Q 33.59375 67.96875 37.109375 65.421875 
Q 40.625 62.890625 42.1875 58.203125 
Q 43.75 53.515625 41.984375 47.265625 
Q 40.234375 41.015625 32.8125 37.5 
Q 39.453125 35.546875 42.1875 31.4375 
Q 44.921875 27.34375 44.921875 21.484375 
Q 44.921875 15.625 43.15625 12.109375 
Q 41.40625 8.59375 39.25 6.25 
Q 37.109375 3.90625 33.390625 2.53125 
Q 29.6875 1.171875 24.015625 1.171875 
Q 18.359375 1.171875 14.25 2.53125 
Q 10.15625 3.90625 7.421875 6.640625 
Q 4.6875 9.375 3.703125 13.078125 
Q 2.734375 16.796875 2.734375 26.171875 
z
M 10.9375 26.5625 
Q 10.546875 17.1875 12.296875 13.671875 
Q 14.0625 10.15625 18.75 9.171875 
Q 23.4375 8.203125 28.515625 9.375 
Q 33.59375 10.546875 35.546875 14.84375 
Q 37.5 19.140625 36.90625 23.4375 
Q 36.328125 27.734375 32.03125 30.65625 
Q 27.734375 33.59375 22.65625 33.203125 
Q 17.578125 32.8125 14.25 29.6875 
Q 10.9375 26.5625 10.546875 17.1875 
z
M 12.109375 56.25 
Q 12.109375 48.4375 14.84375 44.921875 
Q 17.578125 41.40625 23.4375 41.40625 
Q 29.296875 41.40625 32.21875 44.921875 
Q 35.15625 48.4375 34.953125 53.3125 
Q 34.765625 58.203125 31.4375 60.546875 
Q 28.125 62.890625 22.453125 62.5 
Q 16.796875 62.109375 14.453125 59.171875 
Q 12.109375 56.25 12.109375 48.4375 
z
" id="SimHei-56"/>
      </defs>
      <g transform="translate(388.390674 290.687)scale(0.1 -0.1)">
       <use xlink:href="#SimHei-56"/>
       <use x="50" xlink:href="#SimHei-48"/>
       <use x="100" xlink:href="#SimHei-48"/>
       <use x="150" xlink:href="#SimHei-48"/>
      </g>
     </g>
    </g>
    <g id="text_10">
     <!-- x坐标 -->
     <defs>
      <path d="M 44.921875 1.953125 
L 35.546875 1.953125 
L 24.21875 18.75 
L 12.890625 1.953125 
L 3.515625 1.953125 
L 19.53125 24.21875 
L 4.6875 45.703125 
L 14.0625 45.703125 
L 24.21875 29.296875 
L 34.375 45.703125 
L 43.75 45.703125 
L 28.90625 24.21875 
z
" id="SimHei-120"/>
      <path d="M 53.90625 79.6875 
Q 53.515625 73.046875 53.515625 64.84375 
L 53.515625 23.4375 
L 71.09375 23.4375 
Q 77.734375 23.4375 85.15625 23.828125 
L 85.15625 16.796875 
Q 78.125 17.1875 70.3125 17.1875 
L 53.515625 17.1875 
L 53.515625 0.78125 
L 79.296875 0.78125 
Q 85.9375 0.78125 93.359375 1.171875 
L 93.359375 -5.859375 
Q 86.328125 -5.46875 79.296875 -5.46875 
L 23.046875 -5.46875 
Q 14.453125 -5.46875 6.25 -5.859375 
L 6.25 1.171875 
Q 14.453125 0.78125 23.046875 0.78125 
L 45.703125 0.78125 
L 45.703125 17.1875 
L 32.03125 17.1875 
Q 22.65625 17.1875 14.84375 16.796875 
L 14.84375 23.828125 
Q 22.65625 23.4375 32.03125 23.4375 
L 45.703125 23.4375 
L 45.703125 64.84375 
Q 45.703125 73.046875 45.3125 79.6875 
L 53.90625 79.6875 
z
M 81.25 69.53125 
Q 78.90625 66.40625 75.390625 56.25 
Q 81.25 51.5625 93.359375 39.0625 
Q 90.234375 37.5 87.109375 33.59375 
Q 79.296875 43.75 72.65625 49.21875 
Q 68.359375 39.0625 62.109375 30.078125 
Q 58.203125 33.203125 55.078125 34.375 
Q 60.546875 40.234375 65.8125 52.53125 
Q 71.09375 64.84375 71.875 72.65625 
Q 76.5625 70.703125 81.25 69.53125 
z
M 5.46875 33.59375 
Q 9.375 37.109375 14.84375 48.234375 
Q 20.3125 59.375 22.65625 71.484375 
Q 25.390625 69.921875 32.03125 68.75 
Q 30.46875 66.796875 29.09375 63.28125 
Q 27.734375 59.765625 26.5625 55.859375 
Q 37.5 46.09375 42.1875 38.671875 
Q 37.890625 36.328125 35.15625 33.59375 
Q 31.640625 39.84375 29.484375 42.578125 
Q 27.34375 45.3125 23.4375 48.828125 
Q 19.53125 39.453125 12.5 29.296875 
Q 8.984375 32.03125 5.46875 33.59375 
z
" id="SimHei-22352"/>
      <path d="M 19.921875 68.75 
Q 19.921875 75 19.53125 80.859375 
L 27.34375 80.859375 
Q 26.953125 75.390625 26.953125 68.75 
L 26.953125 59.375 
Q 33.203125 59.375 40.234375 59.765625 
L 40.234375 52.34375 
Q 33.203125 52.734375 26.953125 52.734375 
L 26.953125 39.453125 
Q 29.6875 41.40625 32.421875 43.75 
Q 37.5 35.546875 41.40625 27.734375 
Q 37.109375 25.78125 33.984375 23.4375 
Q 31.640625 31.25 26.953125 37.890625 
L 26.953125 7.421875 
Q 26.953125 -0.78125 27.34375 -8.984375 
L 19.53125 -8.984375 
Q 19.921875 -0.390625 19.921875 7.421875 
L 19.921875 32.8125 
Q 16.015625 21.875 7.8125 11.71875 
Q 5.46875 14.84375 1.953125 17.578125 
Q 8.59375 24.21875 12.6875 34.171875 
Q 16.796875 44.140625 17.96875 52.734375 
Q 10.546875 52.734375 5.078125 51.953125 
L 5.078125 59.765625 
Q 12.5 59.375 19.921875 59.375 
z
M 80.859375 48.828125 
Q 88.671875 48.828125 94.53125 49.21875 
L 94.53125 41.796875 
Q 88.671875 42.1875 82.421875 42.1875 
L 70.3125 42.1875 
L 70.3125 2.734375 
Q 70.3125 -3.515625 66.796875 -5.46875 
Q 63.28125 -7.421875 54.296875 -8.59375 
Q 53.515625 -3.90625 51.171875 0.390625 
Q 58.984375 0.390625 60.9375 0.96875 
Q 62.890625 1.5625 62.890625 5.46875 
L 62.890625 42.1875 
L 53.125 42.1875 
Q 43.359375 42.1875 39.0625 41.40625 
L 39.0625 49.21875 
Q 44.140625 48.828125 53.125 48.828125 
z
M 76.5625 74.609375 
Q 84.765625 74.609375 89.84375 75 
L 89.84375 67.1875 
Q 82.421875 67.96875 74.21875 67.96875 
L 55.078125 67.96875 
Q 48.828125 67.96875 42.96875 67.1875 
L 42.96875 75 
Q 48.4375 74.609375 55.078125 74.609375 
z
M 82.421875 31.640625 
Q 91.015625 18.359375 96.875 7.8125 
Q 92.578125 5.859375 88.28125 3.125 
Q 83.984375 14.453125 75.390625 26.953125 
Q 79.296875 28.90625 82.421875 31.640625 
z
M 56.25 27.734375 
Q 54.6875 25.390625 50.390625 15.234375 
Q 46.09375 5.078125 43.75 0.78125 
Q 40.234375 2.734375 35.9375 4.296875 
Q 41.015625 12.109375 43.546875 18.546875 
Q 46.09375 25 47.65625 31.25 
Q 51.953125 29.296875 56.25 27.734375 
z
" id="SimHei-26631"/>
     </defs>
     <g transform="translate(213.595938 303.671375)scale(0.1 -0.1)">
      <use xlink:href="#SimHei-120"/>
      <use x="50" xlink:href="#SimHei-22352"/>
      <use x="150" xlink:href="#SimHei-26631"/>
     </g>
    </g>
   </g>
   <g id="matplotlib.axis_2">
    <g id="ytick_1">
     <g id="line2d_19">
      <path clip-path="url(#p12d03c557e)" d="M 47.535938 265.183569 
L 404.655938 265.183569 
" style="fill:none;stroke:#b0b0b0;stroke-linecap:square;stroke-width:0.8;"/>
     </g>
     <g id="line2d_20">
      <defs>
       <path d="M 0 0 
L -3.5 0 
" id="mb9d15c63b0" style="stroke:#000000;stroke-width:0.8;"/>
      </defs>
      <g>
       <use style="stroke:#000000;stroke-width:0.8;" x="47.535938" xlink:href="#mb9d15c63b0" y="265.183569"/>
      </g>
     </g>
     <g id="text_11">
      <!-- 0 -->
      <g transform="translate(35.535938 268.621069)scale(0.1 -0.1)">
       <use xlink:href="#SimHei-48"/>
      </g>
     </g>
    </g>
    <g id="ytick_2">
     <g id="line2d_21">
      <path clip-path="url(#p12d03c557e)" d="M 47.535938 218.426707 
L 404.655938 218.426707 
" style="fill:none;stroke:#b0b0b0;stroke-linecap:square;stroke-width:0.8;"/>
     </g>
     <g id="line2d_22">
      <g>
       <use style="stroke:#000000;stroke-width:0.8;" x="47.535938" xlink:href="#mb9d15c63b0" y="218.426707"/>
      </g>
     </g>
     <g id="text_12">
      <!-- 1000 -->
      <g transform="translate(20.535938 221.864207)scale(0.1 -0.1)">
       <use xlink:href="#SimHei-49"/>
       <use x="50" xlink:href="#SimHei-48"/>
       <use x="100" xlink:href="#SimHei-48"/>
       <use x="150" xlink:href="#SimHei-48"/>
      </g>
     </g>
    </g>
    <g id="ytick_3">
     <g id="line2d_23">
      <path clip-path="url(#p12d03c557e)" d="M 47.535938 171.669846 
L 404.655938 171.669846 
" style="fill:none;stroke:#b0b0b0;stroke-linecap:square;stroke-width:0.8;"/>
     </g>
     <g id="line2d_24">
      <g>
       <use style="stroke:#000000;stroke-width:0.8;" x="47.535938" xlink:href="#mb9d15c63b0" y="171.669846"/>
      </g>
     </g>
     <g id="text_13">
      <!-- 2000 -->
      <g transform="translate(20.535938 175.107346)scale(0.1 -0.1)">
       <use xlink:href="#SimHei-50"/>
       <use x="50" xlink:href="#SimHei-48"/>
       <use x="100" xlink:href="#SimHei-48"/>
       <use x="150" xlink:href="#SimHei-48"/>
      </g>
     </g>
    </g>
    <g id="ytick_4">
     <g id="line2d_25">
      <path clip-path="url(#p12d03c557e)" d="M 47.535938 124.912985 
L 404.655938 124.912985 
" style="fill:none;stroke:#b0b0b0;stroke-linecap:square;stroke-width:0.8;"/>
     </g>
     <g id="line2d_26">
      <g>
       <use style="stroke:#000000;stroke-width:0.8;" x="47.535938" xlink:href="#mb9d15c63b0" y="124.912985"/>
      </g>
     </g>
     <g id="text_14">
      <!-- 3000 -->
      <g transform="translate(20.535938 128.350485)scale(0.1 -0.1)">
       <use xlink:href="#SimHei-51"/>
       <use x="50" xlink:href="#SimHei-48"/>
       <use x="100" xlink:href="#SimHei-48"/>
       <use x="150" xlink:href="#SimHei-48"/>
      </g>
     </g>
    </g>
    <g id="ytick_5">
     <g id="line2d_27">
      <path clip-path="url(#p12d03c557e)" d="M 47.535938 78.156124 
L 404.655938 78.156124 
" style="fill:none;stroke:#b0b0b0;stroke-linecap:square;stroke-width:0.8;"/>
     </g>
     <g id="line2d_28">
      <g>
       <use style="stroke:#000000;stroke-width:0.8;" x="47.535938" xlink:href="#mb9d15c63b0" y="78.156124"/>
      </g>
     </g>
     <g id="text_15">
      <!-- 4000 -->
      <g transform="translate(20.535938 81.593624)scale(0.1 -0.1)">
       <use xlink:href="#SimHei-52"/>
       <use x="50" xlink:href="#SimHei-48"/>
       <use x="100" xlink:href="#SimHei-48"/>
       <use x="150" xlink:href="#SimHei-48"/>
      </g>
     </g>
    </g>
    <g id="ytick_6">
     <g id="line2d_29">
      <path clip-path="url(#p12d03c557e)" d="M 47.535938 31.399262 
L 404.655938 31.399262 
" style="fill:none;stroke:#b0b0b0;stroke-linecap:square;stroke-width:0.8;"/>
     </g>
     <g id="line2d_30">
      <g>
       <use style="stroke:#000000;stroke-width:0.8;" x="47.535938" xlink:href="#mb9d15c63b0" y="31.399262"/>
      </g>
     </g>
     <g id="text_16">
      <!-- 5000 -->
      <g transform="translate(20.535938 34.836762)scale(0.1 -0.1)">
       <use xlink:href="#SimHei-53"/>
       <use x="50" xlink:href="#SimHei-48"/>
       <use x="100" xlink:href="#SimHei-48"/>
       <use x="150" xlink:href="#SimHei-48"/>
      </g>
     </g>
    </g>
    <g id="text_17">
     <!-- y坐标 -->
     <defs>
      <path d="M 45.3125 45.703125 
L 27.34375 -1.5625 
Q 25.78125 -7.03125 22.65625 -9.765625 
Q 19.53125 -12.5 14.84375 -12.5 
Q 12.890625 -12.5 11.125 -12.296875 
Q 9.375 -12.109375 7.8125 -11.328125 
L 7.8125 -3.515625 
Q 9.375 -4.296875 10.9375 -4.6875 
Q 12.5 -5.078125 13.671875 -5.078125 
Q 16.796875 -5.078125 17.96875 -4.09375 
Q 19.140625 -3.125 20.3125 0.390625 
L 3.125 45.703125 
L 11.71875 45.703125 
L 24.21875 11.328125 
L 24.609375 11.328125 
L 36.71875 45.703125 
z
" id="SimHei-121"/>
     </defs>
     <g transform="translate(15.285938 156.256)rotate(-90)scale(0.1 -0.1)">
      <use xlink:href="#SimHei-121"/>
      <use x="50" xlink:href="#SimHei-22352"/>
      <use x="150" xlink:href="#SimHei-26631"/>
     </g>
    </g>
   </g>
   <g id="line2d_31">
    <path clip-path="url(#p12d03c557e)" d="M 371.252369 54.497152 
L 345.370466 197.245849 
L 281.084511 163.160097 
L 256.500891 170.033356 
L 243.72746 156.614137 
L 294.946824 198.601798 
L 319.111643 233.903228 
L 318.860362 213.283453 
L 272.122169 258.637608 
L 256.333371 209.168849 
L 196.402946 229.835382 
L 156.86813 264.716 
L 91.618932 218.146166 
L 80.143784 225.861048 
L 64.313106 161.570364 
L 63.768665 140.062208 
L 131.740069 133.843545 
L 109.920536 169.37876 
L 143.592138 191.822053 
L 192.424336 188.315289 
L 189.95341 174.381744 
L 209.260137 132.908408 
L 199.250793 110.652142 
L 251.098358 107.659703 
L 260.437621 140.155722 
L 314.169791 130.851106 
L 292.350258 143.335188 
L 310.442462 98.682386 
L 332.471395 116.824048 
L 348.427713 125.240283 
L 329.162867 139.73491 
L 379.167708 79.044504 
L 379.754029 39.862254 
L 368.237001 36.121705 
L 367.6088 205.895869 
L 280.498189 112.849715 
L 325.979979 165.35767 
L 352.238803 177.046885 
L 372.927573 160.261172 
L 379.335228 134.2176 
L 377.827545 113.738095 
L 366.896838 88.48939 
L 381.973675 56.741481 
L 388.42321 50.335791 
L 387.166807 44.350913 
L 382.099315 22.796 
L 380.507871 91.435072 
L 375.85918 97.326437 
L 371.252369 54.497152 
" style="fill:none;stroke:#000000;stroke-linecap:square;stroke-width:1.5;"/>
   </g>
   <g id="line2d_32">
    <defs>
     <path d="M 0 3 
C 0.795609 3 1.55874 2.683901 2.12132 2.12132 
C 2.683901 1.55874 3 0.795609 3 0 
C 3 -0.795609 2.683901 -1.55874 2.12132 -2.12132 
C 1.55874 -2.683901 0.795609 -3 0 -3 
C -0.795609 -3 -1.55874 -2.683901 -2.12132 -2.12132 
C -2.683901 -1.55874 -3 -0.795609 -3 0 
C -3 0.795609 -2.683901 1.55874 -2.12132 2.12132 
C -1.55874 2.683901 -0.795609 3 0 3 
z
" id="m831d9018fd" style="stroke:#000000;"/>
    </defs>
    <g clip-path="url(#p12d03c557e)">
     <use style="stroke:#000000;" x="371.252369" xlink:href="#m831d9018fd" y="54.497152"/>
     <use style="stroke:#000000;" x="345.370466" xlink:href="#m831d9018fd" y="197.245849"/>
     <use style="stroke:#000000;" x="281.084511" xlink:href="#m831d9018fd" y="163.160097"/>
     <use style="stroke:#000000;" x="256.500891" xlink:href="#m831d9018fd" y="170.033356"/>
     <use style="stroke:#000000;" x="243.72746" xlink:href="#m831d9018fd" y="156.614137"/>
     <use style="stroke:#000000;" x="294.946824" xlink:href="#m831d9018fd" y="198.601798"/>
     <use style="stroke:#000000;" x="319.111643" xlink:href="#m831d9018fd" y="233.903228"/>
     <use style="stroke:#000000;" x="318.860362" xlink:href="#m831d9018fd" y="213.283453"/>
     <use style="stroke:#000000;" x="272.122169" xlink:href="#m831d9018fd" y="258.637608"/>
     <use style="stroke:#000000;" x="256.333371" xlink:href="#m831d9018fd" y="209.168849"/>
     <use style="stroke:#000000;" x="196.402946" xlink:href="#m831d9018fd" y="229.835382"/>
     <use style="stroke:#000000;" x="156.86813" xlink:href="#m831d9018fd" y="264.716"/>
     <use style="stroke:#000000;" x="91.618932" xlink:href="#m831d9018fd" y="218.146166"/>
     <use style="stroke:#000000;" x="80.143784" xlink:href="#m831d9018fd" y="225.861048"/>
     <use style="stroke:#000000;" x="64.313106" xlink:href="#m831d9018fd" y="161.570364"/>
     <use style="stroke:#000000;" x="63.768665" xlink:href="#m831d9018fd" y="140.062208"/>
     <use style="stroke:#000000;" x="131.740069" xlink:href="#m831d9018fd" y="133.843545"/>
     <use style="stroke:#000000;" x="109.920536" xlink:href="#m831d9018fd" y="169.37876"/>
     <use style="stroke:#000000;" x="143.592138" xlink:href="#m831d9018fd" y="191.822053"/>
     <use style="stroke:#000000;" x="192.424336" xlink:href="#m831d9018fd" y="188.315289"/>
     <use style="stroke:#000000;" x="189.95341" xlink:href="#m831d9018fd" y="174.381744"/>
     <use style="stroke:#000000;" x="209.260137" xlink:href="#m831d9018fd" y="132.908408"/>
     <use style="stroke:#000000;" x="199.250793" xlink:href="#m831d9018fd" y="110.652142"/>
     <use style="stroke:#000000;" x="251.098358" xlink:href="#m831d9018fd" y="107.659703"/>
     <use style="stroke:#000000;" x="260.437621" xlink:href="#m831d9018fd" y="140.155722"/>
     <use style="stroke:#000000;" x="314.169791" xlink:href="#m831d9018fd" y="130.851106"/>
     <use style="stroke:#000000;" x="292.350258" xlink:href="#m831d9018fd" y="143.335188"/>
     <use style="stroke:#000000;" x="310.442462" xlink:href="#m831d9018fd" y="98.682386"/>
     <use style="stroke:#000000;" x="332.471395" xlink:href="#m831d9018fd" y="116.824048"/>
     <use style="stroke:#000000;" x="348.427713" xlink:href="#m831d9018fd" y="125.240283"/>
     <use style="stroke:#000000;" x="329.162867" xlink:href="#m831d9018fd" y="139.73491"/>
     <use style="stroke:#000000;" x="379.167708" xlink:href="#m831d9018fd" y="79.044504"/>
     <use style="stroke:#000000;" x="379.754029" xlink:href="#m831d9018fd" y="39.862254"/>
     <use style="stroke:#000000;" x="368.237001" xlink:href="#m831d9018fd" y="36.121705"/>
     <use style="stroke:#000000;" x="367.6088" xlink:href="#m831d9018fd" y="205.895869"/>
     <use style="stroke:#000000;" x="280.498189" xlink:href="#m831d9018fd" y="112.849715"/>
     <use style="stroke:#000000;" x="325.979979" xlink:href="#m831d9018fd" y="165.35767"/>
     <use style="stroke:#000000;" x="352.238803" xlink:href="#m831d9018fd" y="177.046885"/>
     <use style="stroke:#000000;" x="372.927573" xlink:href="#m831d9018fd" y="160.261172"/>
     <use style="stroke:#000000;" x="379.335228" xlink:href="#m831d9018fd" y="134.2176"/>
     <use style="stroke:#000000;" x="377.827545" xlink:href="#m831d9018fd" y="113.738095"/>
     <use style="stroke:#000000;" x="366.896838" xlink:href="#m831d9018fd" y="88.48939"/>
     <use style="stroke:#000000;" x="381.973675" xlink:href="#m831d9018fd" y="56.741481"/>
     <use style="stroke:#000000;" x="388.42321" xlink:href="#m831d9018fd" y="50.335791"/>
     <use style="stroke:#000000;" x="387.166807" xlink:href="#m831d9018fd" y="44.350913"/>
     <use style="stroke:#000000;" x="382.099315" xlink:href="#m831d9018fd" y="22.796"/>
     <use style="stroke:#000000;" x="380.507871" xlink:href="#m831d9018fd" y="91.435072"/>
     <use style="stroke:#000000;" x="375.85918" xlink:href="#m831d9018fd" y="97.326437"/>
     <use style="stroke:#000000;" x="371.252369" xlink:href="#m831d9018fd" y="54.497152"/>
    </g>
   </g>
   <g id="patch_3">
    <path d="M 47.535938 276.812 
L 47.535938 10.7 
" style="fill:none;stroke:#000000;stroke-linecap:square;stroke-linejoin:miter;stroke-width:0.8;"/>
   </g>
   <g id="patch_4">
    <path d="M 404.655938 276.812 
L 404.655938 10.7 
" style="fill:none;stroke:#000000;stroke-linecap:square;stroke-linejoin:miter;stroke-width:0.8;"/>
   </g>
   <g id="patch_5">
    <path d="M 47.535938 276.812 
L 404.655938 276.812 
" style="fill:none;stroke:#000000;stroke-linecap:square;stroke-linejoin:miter;stroke-width:0.8;"/>
   </g>
   <g id="patch_6">
    <path d="M 47.535938 10.7 
L 404.655938 10.7 
" style="fill:none;stroke:#000000;stroke-linecap:square;stroke-linejoin:miter;stroke-width:0.8;"/>
   </g>
   <g id="text_18">
    <!-- 29 -->
    <defs>
     <path d="M 12.5 1.171875 
Q 21.09375 15.625 26.5625 27.34375 
Q 16.796875 25.78125 10.34375 29.875 
Q 3.90625 33.984375 2.53125 41.015625 
Q 1.171875 48.046875 2.734375 53.703125 
Q 4.296875 59.375 7.609375 63.078125 
Q 10.9375 66.796875 15.625 68.359375 
Q 20.3125 69.921875 24.015625 69.921875 
Q 27.734375 69.921875 31.640625 68.359375 
Q 35.546875 66.796875 38.671875 63.671875 
Q 41.796875 60.546875 42.96875 57.21875 
Q 44.140625 53.90625 44.140625 48.625 
Q 44.140625 43.359375 40.234375 35.15625 
Q 36.328125 26.953125 21.09375 1.171875 
z
M 9.765625 50 
Q 10.9375 39.84375 14.640625 36.515625 
Q 18.359375 33.203125 22.65625 33.59375 
Q 26.953125 33.984375 29.484375 35.9375 
Q 32.03125 37.890625 34.375 42.578125 
Q 35.9375 48.4375 35.15625 52.53125 
Q 34.375 56.640625 31.046875 59.375 
Q 27.734375 62.109375 23.828125 62.109375 
Q 21.484375 62.5 17.765625 60.9375 
Q 14.0625 59.375 11.90625 54.6875 
Q 9.765625 50 10.9375 39.84375 
z
" id="SimHei-57"/>
    </defs>
    <g transform="translate(371.252369 54.497152)scale(0.15 -0.15)">
     <use xlink:href="#SimHei-50"/>
     <use x="50" xlink:href="#SimHei-57"/>
    </g>
   </g>
   <g id="text_19">
    <!-- 0 -->
    <g transform="translate(345.370466 197.245849)scale(0.15 -0.15)">
     <use xlink:href="#SimHei-48"/>
    </g>
   </g>
   <g id="text_20">
    <!-- 22 -->
    <g transform="translate(281.084511 163.160097)scale(0.15 -0.15)">
     <use xlink:href="#SimHei-50"/>
     <use x="50" xlink:href="#SimHei-50"/>
    </g>
   </g>
   <g id="text_21">
    <!-- 13 -->
    <g transform="translate(256.500891 170.033356)scale(0.15 -0.15)">
     <use xlink:href="#SimHei-49"/>
     <use x="50" xlink:href="#SimHei-51"/>
    </g>
   </g>
   <g id="text_22">
    <!-- 24 -->
    <g transform="translate(243.72746 156.614137)scale(0.15 -0.15)">
     <use xlink:href="#SimHei-50"/>
     <use x="50" xlink:href="#SimHei-52"/>
    </g>
   </g>
   <g id="text_23">
    <!-- 2 -->
    <g transform="translate(294.946824 198.601798)scale(0.15 -0.15)">
     <use xlink:href="#SimHei-50"/>
    </g>
   </g>
   <g id="text_24">
    <!-- 15 -->
    <g transform="translate(319.111643 233.903228)scale(0.15 -0.15)">
     <use xlink:href="#SimHei-49"/>
     <use x="50" xlink:href="#SimHei-53"/>
    </g>
   </g>
   <g id="text_25">
    <!-- 21 -->
    <g transform="translate(318.860362 213.283453)scale(0.15 -0.15)">
     <use xlink:href="#SimHei-50"/>
     <use x="50" xlink:href="#SimHei-49"/>
    </g>
   </g>
   <g id="text_26">
    <!-- 40 -->
    <g transform="translate(272.122169 258.637608)scale(0.15 -0.15)">
     <use xlink:href="#SimHei-52"/>
     <use x="50" xlink:href="#SimHei-48"/>
    </g>
   </g>
   <g id="text_27">
    <!-- 33 -->
    <g transform="translate(256.333371 209.168849)scale(0.15 -0.15)">
     <use xlink:href="#SimHei-51"/>
     <use x="50" xlink:href="#SimHei-51"/>
    </g>
   </g>
   <g id="text_28">
    <!-- 28 -->
    <g transform="translate(196.402946 229.835382)scale(0.15 -0.15)">
     <use xlink:href="#SimHei-50"/>
     <use x="50" xlink:href="#SimHei-56"/>
    </g>
   </g>
   <g id="text_29">
    <!-- 1 -->
    <g transform="translate(156.86813 264.716)scale(0.15 -0.15)">
     <use xlink:href="#SimHei-49"/>
    </g>
   </g>
   <g id="text_30">
    <!-- 25 -->
    <g transform="translate(91.618932 218.146166)scale(0.15 -0.15)">
     <use xlink:href="#SimHei-50"/>
     <use x="50" xlink:href="#SimHei-53"/>
    </g>
   </g>
   <g id="text_31">
    <!-- 3 -->
    <g transform="translate(80.143784 225.861048)scale(0.15 -0.15)">
     <use xlink:href="#SimHei-51"/>
    </g>
   </g>
   <g id="text_32">
    <!-- 34 -->
    <g transform="translate(64.313106 161.570364)scale(0.15 -0.15)">
     <use xlink:href="#SimHei-51"/>
     <use x="50" xlink:href="#SimHei-52"/>
    </g>
   </g>
   <g id="text_33">
    <!-- 44 -->
    <g transform="translate(63.768665 140.062208)scale(0.15 -0.15)">
     <use xlink:href="#SimHei-52"/>
     <use x="50" xlink:href="#SimHei-52"/>
    </g>
   </g>
   <g id="text_34">
    <!-- 23 -->
    <g transform="translate(131.740069 133.843545)scale(0.15 -0.15)">
     <use xlink:href="#SimHei-50"/>
     <use x="50" xlink:href="#SimHei-51"/>
    </g>
   </g>
   <g id="text_35">
    <!-- 9 -->
    <g transform="translate(109.920536 169.37876)scale(0.15 -0.15)">
     <use xlink:href="#SimHei-57"/>
    </g>
   </g>
   <g id="text_36">
    <!-- 41 -->
    <g transform="translate(143.592138 191.822053)scale(0.15 -0.15)">
     <use xlink:href="#SimHei-52"/>
     <use x="50" xlink:href="#SimHei-49"/>
    </g>
   </g>
   <g id="text_37">
    <!-- 4 -->
    <g transform="translate(192.424336 188.315289)scale(0.15 -0.15)">
     <use xlink:href="#SimHei-52"/>
    </g>
   </g>
   <g id="text_38">
    <!-- 47 -->
    <g transform="translate(189.95341 174.381744)scale(0.15 -0.15)">
     <use xlink:href="#SimHei-52"/>
     <use x="50" xlink:href="#SimHei-55"/>
    </g>
   </g>
   <g id="text_39">
    <!-- 38 -->
    <g transform="translate(209.260137 132.908408)scale(0.15 -0.15)">
     <use xlink:href="#SimHei-51"/>
     <use x="50" xlink:href="#SimHei-56"/>
    </g>
   </g>
   <g id="text_40">
    <!-- 31 -->
    <g transform="translate(199.250793 110.652142)scale(0.15 -0.15)">
     <use xlink:href="#SimHei-51"/>
     <use x="50" xlink:href="#SimHei-49"/>
    </g>
   </g>
   <g id="text_41">
    <!-- 20 -->
    <g transform="translate(251.098358 107.659703)scale(0.15 -0.15)">
     <use xlink:href="#SimHei-50"/>
     <use x="50" xlink:href="#SimHei-48"/>
    </g>
   </g>
   <g id="text_42">
    <!-- 12 -->
    <g transform="translate(260.437621 140.155722)scale(0.15 -0.15)">
     <use xlink:href="#SimHei-49"/>
     <use x="50" xlink:href="#SimHei-50"/>
    </g>
   </g>
   <g id="text_43">
    <!-- 11 -->
    <g transform="translate(314.169791 130.851106)scale(0.15 -0.15)">
     <use xlink:href="#SimHei-49"/>
     <use x="50" xlink:href="#SimHei-49"/>
    </g>
   </g>
   <g id="text_44">
    <!-- 10 -->
    <g transform="translate(292.350258 143.335188)scale(0.15 -0.15)">
     <use xlink:href="#SimHei-49"/>
     <use x="50" xlink:href="#SimHei-48"/>
    </g>
   </g>
   <g id="text_45">
    <!-- 19 -->
    <g transform="translate(310.442462 98.682386)scale(0.15 -0.15)">
     <use xlink:href="#SimHei-49"/>
     <use x="50" xlink:href="#SimHei-57"/>
    </g>
   </g>
   <g id="text_46">
    <!-- 32 -->
    <g transform="translate(332.471395 116.824048)scale(0.15 -0.15)">
     <use xlink:href="#SimHei-51"/>
     <use x="50" xlink:href="#SimHei-50"/>
    </g>
   </g>
   <g id="text_47">
    <!-- 45 -->
    <g transform="translate(348.427713 125.240283)scale(0.15 -0.15)">
     <use xlink:href="#SimHei-52"/>
     <use x="50" xlink:href="#SimHei-53"/>
    </g>
   </g>
   <g id="text_48">
    <!-- 14 -->
    <g transform="translate(329.162867 139.73491)scale(0.15 -0.15)">
     <use xlink:href="#SimHei-49"/>
     <use x="50" xlink:href="#SimHei-52"/>
    </g>
   </g>
   <g id="text_49">
    <!-- 27 -->
    <g transform="translate(379.167708 79.044504)scale(0.15 -0.15)">
     <use xlink:href="#SimHei-50"/>
     <use x="50" xlink:href="#SimHei-55"/>
    </g>
   </g>
   <g id="text_50">
    <!-- 26 -->
    <g transform="translate(379.754029 39.862254)scale(0.15 -0.15)">
     <use xlink:href="#SimHei-50"/>
     <use x="50" xlink:href="#SimHei-54"/>
    </g>
   </g>
   <g id="text_51">
    <!-- 42 -->
    <g transform="translate(368.237001 36.121705)scale(0.15 -0.15)">
     <use xlink:href="#SimHei-52"/>
     <use x="50" xlink:href="#SimHei-50"/>
    </g>
   </g>
   <g id="text_52">
    <!-- 7 -->
    <g transform="translate(367.6088 205.895869)scale(0.15 -0.15)">
     <use xlink:href="#SimHei-55"/>
    </g>
   </g>
   <g id="text_53">
    <!-- 46 -->
    <g transform="translate(280.498189 112.849715)scale(0.15 -0.15)">
     <use xlink:href="#SimHei-52"/>
     <use x="50" xlink:href="#SimHei-54"/>
    </g>
   </g>
   <g id="text_54">
    <!-- 39 -->
    <g transform="translate(325.979979 165.35767)scale(0.15 -0.15)">
     <use xlink:href="#SimHei-51"/>
     <use x="50" xlink:href="#SimHei-57"/>
    </g>
   </g>
   <g id="text_55">
    <!-- 8 -->
    <g transform="translate(352.238803 177.046885)scale(0.15 -0.15)">
     <use xlink:href="#SimHei-56"/>
    </g>
   </g>
   <g id="text_56">
    <!-- 37 -->
    <g transform="translate(372.927573 160.261172)scale(0.15 -0.15)">
     <use xlink:href="#SimHei-51"/>
     <use x="50" xlink:href="#SimHei-55"/>
    </g>
   </g>
   <g id="text_57">
    <!-- 30 -->
    <g transform="translate(379.335228 134.2176)scale(0.15 -0.15)">
     <use xlink:href="#SimHei-51"/>
     <use x="50" xlink:href="#SimHei-48"/>
    </g>
   </g>
   <g id="text_58">
    <!-- 43 -->
    <g transform="translate(377.827545 113.738095)scale(0.15 -0.15)">
     <use xlink:href="#SimHei-52"/>
     <use x="50" xlink:href="#SimHei-51"/>
    </g>
   </g>
   <g id="text_59">
    <!-- 35 -->
    <g transform="translate(366.896838 88.48939)scale(0.15 -0.15)">
     <use xlink:href="#SimHei-51"/>
     <use x="50" xlink:href="#SimHei-53"/>
    </g>
   </g>
   <g id="text_60">
    <!-- 5 -->
    <g transform="translate(381.973675 56.741481)scale(0.15 -0.15)">
     <use xlink:href="#SimHei-53"/>
    </g>
   </g>
   <g id="text_61">
    <!-- 36 -->
    <g transform="translate(388.42321 50.335791)scale(0.15 -0.15)">
     <use xlink:href="#SimHei-51"/>
     <use x="50" xlink:href="#SimHei-54"/>
    </g>
   </g>
   <g id="text_62">
    <!-- 18 -->
    <g transform="translate(387.166807 44.350913)scale(0.15 -0.15)">
     <use xlink:href="#SimHei-49"/>
     <use x="50" xlink:href="#SimHei-56"/>
    </g>
   </g>
   <g id="text_63">
    <!-- 16 -->
    <g transform="translate(382.099315 22.796)scale(0.15 -0.15)">
     <use xlink:href="#SimHei-49"/>
     <use x="50" xlink:href="#SimHei-54"/>
    </g>
   </g>
   <g id="text_64">
    <!-- 6 -->
    <g transform="translate(380.507871 91.435072)scale(0.15 -0.15)">
     <use xlink:href="#SimHei-54"/>
    </g>
   </g>
   <g id="text_65">
    <!-- 17 -->
    <g transform="translate(375.85918 97.326437)scale(0.15 -0.15)">
     <use xlink:href="#SimHei-49"/>
     <use x="50" xlink:href="#SimHei-55"/>
    </g>
   </g>
   <g id="text_66">
    <!-- 29 -->
    <g transform="translate(371.252369 54.497152)scale(0.15 -0.15)">
     <use xlink:href="#SimHei-50"/>
     <use x="50" xlink:href="#SimHei-57"/>
    </g>
   </g>
  </g>
 </g>
 <defs>
  <clipPath id="p12d03c557e">
   <rect height="266.112" width="357.12" x="47.535938" y="10.7"/>
  </clipPath>
 </defs>
</svg>
